<?xml version="1.0" encoding="UTF-8" standalone="no"?>
<!-- Created with Inkscape (http://www.inkscape.org/) -->

<svg
   xmlns:dc="http://purl.org/dc/elements/1.1/"
   xmlns:cc="http://creativecommons.org/ns#"
   xmlns:rdf="http://www.w3.org/1999/02/22-rdf-syntax-ns#"
   xmlns:svg="http://www.w3.org/2000/svg"
   xmlns="http://www.w3.org/2000/svg"
   xmlns:sodipodi="http://sodipodi.sourceforge.net/DTD/sodipodi-0.dtd"
   xmlns:inkscape="http://www.inkscape.org/namespaces/inkscape"
   width="210.82594mm"
   height="137.25252mm"
   viewBox="0 0 210.82595 137.25252"
   version="1.1"
   id="svg8"
   inkscape:version="0.92.4 (5da689c313, 2019-01-14)"
   sodipodi:docname="SimpleChatUMLClassDiagram.svg">
  <defs
     id="defs2">
    <clipPath
       id="clipPath1151-0"
       clipPathUnits="userSpaceOnUse">
      <path
         style="clip-rule:evenodd"
         inkscape:connector-curvature="0"
         id="path1149-1"
         d="M 0,0 H 2550 V 3296.1223 H 0 Z" />
    </clipPath>
    <clipPath
       id="clipPath1165"
       clipPathUnits="userSpaceOnUse">
      <path
         style="clip-rule:evenodd"
         inkscape:connector-curvature="0"
         id="path1163"
         d="m 1315.4524,722.15039 h 575.3231 v 239.71802 h -575.3231 z" />
    </clipPath>
    <clipPath
       id="clipPath1197"
       clipPathUnits="userSpaceOnUse">
      <path
         style="clip-rule:evenodd"
         inkscape:connector-curvature="0"
         id="path1195"
         d="M 0,0 H 2550 V 3296.1223 H 0 Z" />
    </clipPath>
    <clipPath
       id="clipPath1249"
       clipPathUnits="userSpaceOnUse">
      <path
         style="clip-rule:evenodd"
         inkscape:connector-curvature="0"
         id="path1247"
         d="M 0,0 H 2550 V 3296.1223 H 0 Z" />
    </clipPath>
    <clipPath
       id="clipPath1263"
       clipPathUnits="userSpaceOnUse">
      <path
         style="clip-rule:evenodd"
         inkscape:connector-curvature="0"
         id="path1261"
         d="M 254.70035,722.15039 H 1099.7062 V 991.83313 H 254.70035 Z" />
    </clipPath>
    <clipPath
       id="clipPath1299"
       clipPathUnits="userSpaceOnUse">
      <path
         style="clip-rule:evenodd"
         inkscape:connector-curvature="0"
         id="path1297"
         d="M 0,0 H 2550 V 3296.1223 H 0 Z" />
    </clipPath>
    <clipPath
       id="clipPath1377"
       clipPathUnits="userSpaceOnUse">
      <path
         style="clip-rule:evenodd"
         inkscape:connector-curvature="0"
         id="path1375"
         d="M 416.50998,242.71445 H 1669.0364 V 572.32666 H 416.50998 Z" />
    </clipPath>
    <clipPath
       id="clipPath1419"
       clipPathUnits="userSpaceOnUse">
      <path
         style="clip-rule:evenodd"
         inkscape:connector-curvature="0"
         id="path1417"
         d="M 0,0 H 2550 V 3296.1223 H 0 Z" />
    </clipPath>
    <clipPath
       id="clipPath1461"
       clipPathUnits="userSpaceOnUse">
      <path
         style="clip-rule:evenodd"
         inkscape:connector-curvature="0"
         id="path1459"
         d="m 1315.4524,1351.4102 h 1132.6675 v 359.5769 H 1315.4524 Z" />
    </clipPath>
  </defs>
  <sodipodi:namedview
     id="base"
     pagecolor="#ffffff"
     bordercolor="#666666"
     borderopacity="1.0"
     inkscape:pageopacity="0.0"
     inkscape:pageshadow="2"
     inkscape:zoom="0.98994949"
     inkscape:cx="322.56736"
     inkscape:cy="292.61427"
     inkscape:document-units="mm"
     inkscape:current-layer="layer1"
     showgrid="false"
     fit-margin-top="0"
     fit-margin-left="0"
     fit-margin-right="0"
     fit-margin-bottom="0"
     inkscape:window-width="1920"
     inkscape:window-height="1057"
     inkscape:window-x="-8"
     inkscape:window-y="-8"
     inkscape:window-maximized="1" />
  <metadata
     id="metadata5">
    <rdf:RDF>
      <cc:Work
         rdf:about="">
        <dc:format>image/svg+xml</dc:format>
        <dc:type
           rdf:resource="http://purl.org/dc/dcmitype/StillImage" />
        <dc:title></dc:title>
      </cc:Work>
    </rdf:RDF>
  </metadata>
  <g
     inkscape:label="Layer 1"
     inkscape:groupmode="layer"
     id="layer1"
     transform="translate(453.51538,109.71381)">
    <g
       id="g1145"
       transform="matrix(0.08466666,0,0,0.08466666,-454.78389,-130.26363)">
      <g
         id="g1147"
         clip-path="url(#clipPath1151-0)">
        <g
           id="g1153"
           transform="matrix(2.9964747,0,0,2.9964747,1.4982374,1.4982374)">
          <path
             d="m 439,241 h 190 v 80 H 439 Z"
             style="fill:#ffffff;fill-opacity:1;fill-rule:nonzero;stroke:none"
             id="path1155"
             inkscape:connector-curvature="0" />
          <path
             d="m 439,241 h 190 v 80 H 439 Z"
             style="fill:none;stroke:#000000;stroke-width:1;stroke-linecap:butt;stroke-linejoin:miter;stroke-miterlimit:10;stroke-dasharray:none;stroke-opacity:1"
             id="path1157"
             inkscape:connector-curvature="0" />
        </g>
      </g>
    </g>
    <g
       id="g1159"
       transform="matrix(0.08466666,0,0,0.08466666,-454.78389,-130.26363)">
      <g
         id="g1161"
         clip-path="url(#clipPath1165)">
        <g
           id="g1167"
           transform="scale(2.9964747)">
          <path
             d="m 439,279 h 192 v 1 H 439 Z"
             style="fill:#9a9a9a;fill-opacity:1;fill-rule:nonzero;stroke:none"
             id="path1169"
             inkscape:connector-curvature="0" />
          <path
             d="m 630,280 h 1 v -1"
             style="fill:#eeeeee;fill-opacity:1;fill-rule:nonzero;stroke:none"
             id="path1171"
             inkscape:connector-curvature="0" />
          <path
             d="m 439,279 h 1 v 1 h -1 z"
             style="fill:#9a9a9a;fill-opacity:1;fill-rule:nonzero;stroke:none"
             id="path1173"
             inkscape:connector-curvature="0" />
          <text
             transform="translate(488.125,256)"
             style="font-style:italic;font-variant:normal;font-size:12px;font-family:Verdana;-inkscape-font-specification:Verdana-Italic;writing-mode:lr-tb;fill:#000000;fill-opacity:1;fill-rule:nonzero;stroke:none"
             id="text1177">
            <tspan
               x="0 9.8203125 19.640625 24.691406 32.285156 37.013672 44.162109 49.283203 53.501953 60.708984 66.960938 74.109375 83.929688"
               y="0"
               sodipodi:role="line"
               id="tspan1175">&lt;&lt;Interface&gt;&gt;</tspan>
          </text>
          <text
             transform="translate(489.8125,270)"
             style="font-variant:normal;font-weight:bold;font-size:12px;font-family:Verdana;-inkscape-font-specification:Verdana-Bold;writing-mode:lr-tb;fill:#000000;fill-opacity:1;fill-rule:nonzero;stroke:none"
             id="text1181">
            <tspan
               x="0 10.201172 18.591797 25.710938 33.679688 39.644531 47.443359 55.412109 61.376953 71.783203 79.962891"
               y="0"
               sodipodi:role="line"
               id="tspan1179">Observer&lt;T&gt;</tspan>
          </text>
          <text
             transform="translate(443,297)"
             style="font-variant:normal;font-weight:normal;font-size:12px;font-family:Verdana;-inkscape-font-specification:Verdana;writing-mode:lr-tb;fill:#000000;fill-opacity:1;fill-rule:nonzero;stroke:none"
             id="text1185">
            <tspan
               x="0 9.8203125 14.039062 21.515625 28.664062 33.392578 42.837891 50.314453 56.566406 63.714844 68.835938 75.9375 83.085938 88.207031 97.183594 104.39062 116.0625 123.21094 128.66016 134.10938 139.55859 143.77734 151.98047 156.70898 161.83008 165.12305 172.7168"
               y="0"
               sodipodi:role="line"
               id="tspan1183">+ getObserverName(): String</tspan>
          </text>
          <text
             transform="translate(443,311)"
             style="font-variant:normal;font-weight:normal;font-size:12px;font-family:Verdana;-inkscape-font-specification:Verdana;writing-mode:lr-tb;fill:#000000;fill-opacity:1;fill-rule:nonzero;stroke:none"
             id="text1189">
            <tspan
               x="0 9.8203125 14.039062 21.632812 29.109375 36.585938 43.792969 48.521484 55.669922 61.119141 68.513672 73.962891 79.412109 83.630859 90.732422 98.015625 101.30859"
               y="0"
               sodipodi:role="line"
               id="tspan1187">+ update(T): void</tspan>
          </text>
        </g>
      </g>
    </g>
    <g
       id="g1191"
       transform="matrix(0.08466666,0,0,0.08466666,-454.6894,-130.79278)">
      <g
         id="g1193"
         clip-path="url(#clipPath1197)">
        <g
           id="g1199"
           transform="matrix(2.9964747,0,0,2.9964747,1.4982374,1.4982374)">
          <path
             d="m 5,451 h 425 v 99 H 5 Z"
             style="fill:#ffffff;fill-opacity:1;fill-rule:nonzero;stroke:none"
             id="path1201"
             inkscape:connector-curvature="0" />
          <path
             d="m 5,451 h 425 v 99 H 5 Z"
             style="fill:none;stroke:#000000;stroke-width:1;stroke-linecap:butt;stroke-linejoin:miter;stroke-miterlimit:10;stroke-dasharray:none;stroke-opacity:1"
             id="path1203"
             inkscape:connector-curvature="0" />
        </g>
      </g>
    </g>
    <path
       inkscape:connector-curvature="0"
       id="path1215"
       style="fill:#9a9a9a;fill-opacity:1;fill-rule:nonzero;stroke:none;stroke-width:0.25370151"
       d="m -453.51538,-7.6387507 h 108.33054 v 0.2537015 h -108.33054 z" />
    <path
       inkscape:connector-curvature="0"
       id="path1217"
       style="fill:#eeeeee;fill-opacity:1;fill-rule:nonzero;stroke:none;stroke-width:0.25370151"
       d="m -345.43854,-7.3850492 h 0.2537 v -0.2537015" />
    <path
       inkscape:connector-curvature="0"
       id="path1219"
       style="fill:#9a9a9a;fill-opacity:1;fill-rule:nonzero;stroke:none;stroke-width:0.25370151"
       d="m -453.51538,-7.6387507 h 0.2537 v 0.2537015 h -0.2537 z" />
    <path
       inkscape:connector-curvature="0"
       id="path1221"
       style="fill:#9a9a9a;fill-opacity:1;fill-rule:nonzero;stroke:none;stroke-width:0.25370151"
       d="m -453.51538,-0.78881023 h 108.33054 v 0.2537015 h -108.33054 z" />
    <path
       inkscape:connector-curvature="0"
       id="path1223"
       style="fill:#eeeeee;fill-opacity:1;fill-rule:nonzero;stroke:none;stroke-width:0.25370151"
       d="m -345.43854,-0.53510873 h 0.2537 v -0.2537015" />
    <path
       inkscape:connector-curvature="0"
       id="path1225"
       style="fill:#9a9a9a;fill-opacity:1;fill-rule:nonzero;stroke:none;stroke-width:0.25370151"
       d="m -453.51538,-0.78881023 h 0.2537 v 0.2537015 h -0.2537 z" />
    <text
       id="text1229"
       style="font-variant:normal;font-weight:bold;font-size:3.0444181px;font-family:Verdana;-inkscape-font-specification:Verdana-Bold;writing-mode:lr-tb;fill:#000000;fill-opacity:1;fill-rule:nonzero;stroke:none;stroke-width:0.25370151"
       x="-407.40909"
       y="-9.9220657">
      <tspan
         id="tspan1227"
         sodipodi:role="line"
         y="-9.9220657"
         x="-407.40909 -405.17783 -403.00897 -400.88025 -399.83969 -398.7991 -396.99298 -394.82413 -392.80243"
         style="stroke-width:0.25370151">Publisher</tspan>
    </text>
    <text
       id="text1233"
       style="font-variant:normal;font-weight:normal;font-size:3.0444181px;font-family:Verdana;-inkscape-font-specification:Verdana;writing-mode:lr-tb;fill:#000000;fill-opacity:1;fill-rule:nonzero;stroke:none;stroke-width:0.25370151"
       x="-452.50058"
       y="-3.0721235">
      <tspan
         id="tspan1231"
         sodipodi:role="line"
         y="-3.0721235"
         x="-452.50058 -451.1181 -450.04779 -448.46167 -446.53513 -444.7067 -442.78015 -440.85361 -439.04004 -438.20459 -435.63885 -433.81042 -431.9136 -430.53113 -429.46082 -427.58481 -426.28558 -424.47202 -422.65845 -420.09268 -418.26425 -416.36743 -413.87601 -411.79486 -410.59525 -409.29602 -408.46057 -406.53403 -404.63721 -403.52975 -402.45944 -400.3783 -399.07907 -397.77985 -395.95142 -394.14972 -392.45508 -391.61966 -390.03351 -388.83389 -386.34247 -383.94617 -382.04935 -380.46323 -378.64966 -377.35043 -375.54877 -373.73517 -372.43594 -369.94452 -367.81879 -365.89224 -364.06381 -362.86417 -360.51843 -358.69 -357.49036 -355.66193 -353.1705 -350.67908"
         style="stroke-width:0.25370151">- channelMap: TreeMap&lt;String, ArrayList&lt;Observer&lt;ChatData&gt;&gt;&gt;</tspan>
    </text>
    <g
       id="g1243"
       transform="matrix(0.08466666,0,0,0.08466666,-454.78389,-130.26363)">
      <g
         id="g1245"
         clip-path="url(#clipPath1249)">
        <g
           id="g1251"
           transform="matrix(2.9964747,0,0,2.9964747,1.4982374,1.4982374)">
          <path
             d="m 85,241 h 280 v 90 H 85 Z"
             style="fill:#ffffff;fill-opacity:1;fill-rule:nonzero;stroke:none"
             id="path1253"
             inkscape:connector-curvature="0" />
          <path
             d="m 85,241 h 280 v 90 H 85 Z"
             style="fill:none;stroke:#000000;stroke-width:1;stroke-linecap:butt;stroke-linejoin:miter;stroke-miterlimit:10;stroke-dasharray:none;stroke-opacity:1"
             id="path1255"
             inkscape:connector-curvature="0" />
        </g>
      </g>
    </g>
    <g
       id="g1257"
       transform="matrix(0.08466666,0,0,0.08466666,-454.78389,-130.26363)">
      <g
         id="g1259"
         clip-path="url(#clipPath1263)">
        <g
           id="g1265"
           transform="scale(2.9964747)">
          <path
             d="m 85,279 h 282 v 1 H 85 Z"
             style="fill:#9a9a9a;fill-opacity:1;fill-rule:nonzero;stroke:none"
             id="path1267"
             inkscape:connector-curvature="0" />
          <path
             d="m 366,280 h 1 v -1"
             style="fill:#eeeeee;fill-opacity:1;fill-rule:nonzero;stroke:none"
             id="path1269"
             inkscape:connector-curvature="0" />
          <path
             d="m 85,279 h 1 v 1 h -1 z"
             style="fill:#9a9a9a;fill-opacity:1;fill-rule:nonzero;stroke:none"
             id="path1271"
             inkscape:connector-curvature="0" />
          <text
             transform="translate(179.125,256)"
             style="font-style:italic;font-variant:normal;font-size:12px;font-family:Verdana;-inkscape-font-specification:Verdana-Italic;writing-mode:lr-tb;fill:#000000;fill-opacity:1;fill-rule:nonzero;stroke:none"
             id="text1275">
            <tspan
               x="0 9.8203125 19.640625 24.691406 32.285156 37.013672 44.162109 49.283203 53.501953 60.708984 66.960938 74.109375 83.929688"
               y="0"
               sodipodi:role="line"
               id="tspan1273">&lt;&lt;Interface&gt;&gt;</tspan>
          </text>
          <text
             transform="translate(172.46875,270)"
             style="font-variant:normal;font-weight:bold;font-size:12px;font-family:Verdana;-inkscape-font-specification:Verdana-Bold;writing-mode:lr-tb;fill:#000000;fill-opacity:1;fill-rule:nonzero;stroke:none"
             id="text1279">
            <tspan
               x="0 8.7949219 17.34375 25.734375 29.835938 33.9375 41.056641 49.605469 57.621094 66.011719 70.113281 78.082031 88.488281 96.667969"
               y="0"
               sodipodi:role="line"
               id="tspan1277">Publishable&lt;T&gt;</tspan>
          </text>
          <text
             transform="translate(89,297)"
             style="font-variant:normal;font-weight:normal;font-size:12px;font-family:Verdana;-inkscape-font-specification:Verdana;writing-mode:lr-tb;fill:#000000;fill-opacity:1;fill-rule:nonzero;stroke:none"
             id="text1283">
            <tspan
               x="0 9.8203125 14.039062 18.169922 25.453125 28.746094 36.339844 44.71875 52.3125 59.519531 67.113281 74.707031 81.855469 85.148438 90.597656 98.800781 103.5293 108.65039 111.94336 119.53711 127.01367 131.37891 135.59766 145.04297 152.51953 158.77148 165.91992 171.04102 178.14258 185.29102 190.41211 200.23242 207.62695 217.44727 222.89648 228.3457 232.56445 239.66602 246.94922 250.24219"
               y="0"
               sodipodi:role="line"
               id="tspan1281">+ joinChannel(String, Observer&lt;T&gt;): void</tspan>
          </text>
          <text
             transform="translate(89,311)"
             style="font-variant:normal;font-weight:normal;font-size:12px;font-family:Verdana;-inkscape-font-specification:Verdana;writing-mode:lr-tb;fill:#000000;fill-opacity:1;fill-rule:nonzero;stroke:none"
             id="text1287">
            <tspan
               x="0 9.8203125 14.039062 17.332031 24.480469 31.6875 38.789062 45.9375 54.316406 61.910156 69.117188 76.710938 84.304688 91.453125 94.746094 100.19531 108.39844 113.12695 118.24805 121.54102 129.13477 136.61133 140.97656 145.19531 154.64062 162.11719 168.36914 175.51758 180.63867 187.74023 194.88867 200.00977 209.83008 217.22461 227.04492 232.49414 237.94336 242.16211 249.26367 256.54688 259.83984"
               y="0"
               sodipodi:role="line"
               id="tspan1285">+ leaveChannel(String, Observer&lt;T&gt;): void</tspan>
          </text>
          <text
             transform="translate(89,325)"
             style="font-variant:normal;font-weight:normal;font-size:12px;font-family:Verdana;-inkscape-font-specification:Verdana;writing-mode:lr-tb;fill:#000000;fill-opacity:1;fill-rule:nonzero;stroke:none"
             id="text1291">
            <tspan
               x="0 9.8203125 14.039062 20.291016 27.439453 35.033203 42.509766 51.955078 59.431641 63.5625 70.710938 76.962891 81.691406 87.140625 94.535156 98.900391 103.11914 112.56445 120.04102 126.29297 133.44141 138.5625 145.66406 152.8125 157.93359 167.75391 175.14844 184.96875 190.41797 195.86719 200.08594 207.1875 214.4707 217.76367"
               y="0"
               sodipodi:role="line"
               id="tspan1289">+ sendObject(T, Observer&lt;T&gt;): void</tspan>
          </text>
        </g>
      </g>
    </g>
    <g
       id="g1293"
       transform="matrix(0.08466666,0,0,0.08466666,-454.78389,-130.26363)">
      <g
         id="g1295"
         clip-path="url(#clipPath1299)">
        <g
           id="g1301"
           transform="matrix(2.9964747,0,0,2.9964747,1.4982374,1.4982374)">
          <path
             d="m 669,301 h 146 v 30 H 669 Z"
             style="fill:#ffffff;fill-opacity:1;fill-rule:nonzero;stroke:none"
             id="path1303"
             inkscape:connector-curvature="0" />
          <path
             d="m 669,301 h 146 v 30 H 669 Z"
             style="fill:none;stroke:#000000;stroke-width:1;stroke-linecap:butt;stroke-linejoin:miter;stroke-miterlimit:10;stroke-dasharray:none;stroke-opacity:1"
             id="path1305"
             inkscape:connector-curvature="0" />
        </g>
        <g
           id="g1307"
           transform="scale(2.9964747)">
          <text
             transform="translate(675.79688,316)"
             style="font-variant:normal;font-weight:bold;font-size:12px;font-family:Verdana;-inkscape-font-specification:Verdana-Bold;writing-mode:lr-tb;fill:#000000;fill-opacity:1;fill-rule:nonzero;stroke:none"
             id="text1311">
            <tspan
               x="0 4.8339844 12.849609 20.648438 28.664062 36.691406 41.027344 48.146484 59.900391 64.001953 72.550781 80.941406 85.277344 91.939453 99.744141 105.70898 113.72461 126.42188"
               y="0"
               sodipodi:role="line"
               id="tspan1309">javax.swing.JFrame</tspan>
          </text>
        </g>
        <g
           id="g1313"
           transform="matrix(2.9964747,0,0,2.9964747,1.4982374,1.4982374)">
          <path
             d="m 559.5,449.99988 7.9e-4,-3 1,2.4e-4 -7.9e-4,3 m -0.99841,-6.00024 7.9e-4,-3 1,2.4e-4 -7.9e-4,3 m -0.99842,-6.00024 8e-4,-3 1,2.4e-4 -8e-4,3 m -0.99841,-6.00024 7.9e-4,-3 1,2.4e-4 -7.9e-4,3 m -0.99841,-6.00024 7.9e-4,-3 1,2.4e-4 -7.9e-4,3 m -0.99848,-6.00024 8e-4,-3 1,2.4e-4 -8e-4,3 m -0.99841,-6.00024 7.9e-4,-3 1,2.4e-4 -7.9e-4,3 m -0.99841,-6.00024 7.9e-4,-3 1,2.4e-4 -7.9e-4,3 m -0.99842,-6.00024 8e-4,-3 1,2.4e-4 -8e-4,3 m -0.99841,-6.00024 7.9e-4,-3 1,2.4e-4 -7.9e-4,3 m -0.99841,-6.00024 7.9e-4,-3 1,2.4e-4 -7.9e-4,3 m -0.99841,-6.00024 7.9e-4,-3 1,2.4e-4 -7.9e-4,3 m -0.99842,-6.00024 8e-4,-3 1,2.4e-4 -8e-4,3 m -0.99841,-6.00024 7.9e-4,-3 1,2.4e-4 -7.9e-4,3 m -0.99841,-6.00024 7.3e-4,-3 1,2.4e-4 -7.3e-4,3 m -0.99848,-6.00024 8e-4,-3 1,2.4e-4 -8e-4,3 m -0.99841,-6.00024 7.9e-4,-3 1,2.4e-4 -7.9e-4,3 m -0.99841,-6.00024 7.9e-4,-3 1,2.4e-4 -7.9e-4,3 m -0.99842,-6.00024 8e-4,-3 1,2.4e-4 -8e-4,3 m -0.99841,-6.00024 1,2.4e-4"
             style="fill:#000000;fill-opacity:1;fill-rule:nonzero;stroke:none"
             id="path1315"
             inkscape:connector-curvature="0" />
          <path
             d="m 560.03003,323 6.5,13 h -13 z"
             style="fill:none;stroke:#000000;stroke-width:1;stroke-linecap:butt;stroke-linejoin:miter;stroke-miterlimit:10;stroke-dasharray:none;stroke-opacity:1"
             id="path1317"
             inkscape:connector-curvature="0" />
        </g>
        <g
           id="g1319"
           transform="scale(2.9964747)">
          <path
             d="m 515,379 h 91 v 29 h -91 z"
             style="fill:#ffffff;fill-opacity:1;fill-rule:nonzero;stroke:none"
             id="path1321"
             inkscape:connector-curvature="0" />
          <text
             transform="translate(530.65625,390)"
             style="font-variant:normal;font-weight:normal;font-size:11px;font-family:Verdana;-inkscape-font-specification:Verdana;writing-mode:lr-tb;fill:#000000;fill-opacity:1;fill-rule:nonzero;stroke:none"
             id="text1325">
            <tspan
               x="0 9.0019531 18.003906 24.857422 27.875977 34.836914 41.69043 50.692383"
               y="0"
               sodipodi:role="line"
               id="tspan1323">&lt;&lt;bind&gt;&gt;</tspan>
          </text>
          <text
             transform="translate(515.32813,405)"
             style="font-variant:normal;font-weight:normal;font-size:11px;font-family:Verdana;-inkscape-font-specification:Verdana;writing-mode:lr-tb;fill:#000000;fill-opacity:1;fill-rule:nonzero;stroke:none"
             id="text1329">
            <tspan
               x="0 9.0019531"
               y="0"
               sodipodi:role="line"
               id="tspan1327">&lt;T</tspan>
          </text>
          <text
             transform="translate(531.09375,405)"
             style="font-variant:normal;font-weight:normal;font-size:14px;font-family:'Times New Roman';-inkscape-font-specification:TimesNewRomanPSMT;writing-mode:lr-tb;fill:#000000;fill-opacity:1;fill-rule:nonzero;stroke:none"
             id="text1333">
            <tspan
               x="0"
               y="0"
               id="tspan1331">→</tspan>
          </text>
          <text
             transform="translate(545.09375,405)"
             style="font-variant:normal;font-weight:normal;font-size:11px;font-family:Verdana;-inkscape-font-specification:Verdana;writing-mode:lr-tb;fill:#000000;fill-opacity:1;fill-rule:nonzero;stroke:none"
             id="text1337">
            <tspan
               x="0 7.6806641 14.641602 21.248047 25.58252 34.058105 40.664551 44.999023 51.605469"
               y="0"
               sodipodi:role="line"
               id="tspan1335">ChatData&gt;</tspan>
          </text>
        </g>
        <g
           id="g1339"
           transform="matrix(2.9964747,0,0,2.9964747,1.4982374,1.4982374)">
          <path
             d="m 154.5,448 v -3 h 1 v 3 m -1,-6 v -3 h 1 v 3 m -1,-6 v -3 h 1 v 3 m -1,-6 v -3 h 1 v 3 m -1,-6 v -3 h 1 v 3 m -1,-6 v -3 h 1 v 3 m -1,-6 v -3 h 1 v 3 m -1,-6 v -3 h 1 v 3 m -1,-6 v -3 h 1 v 3 m -1,-6 v -3 h 1 v 3 m -1,-6 v -3 h 1 v 3 m -1,-6 v -3 h 1 v 3 m -1,-6 v -3 h 1 v 3 m -1,-6 v -3 h 1 v 3 m -1,-6 v -3 h 1 v 3 m -1,-6 v -3 h 1 v 3 m -1,-6 v -3 h 1 v 3 m -1,-6 v -0.88 h 1 V 346"
             style="fill:#000000;fill-opacity:1;fill-rule:nonzero;stroke:none"
             id="path1341"
             inkscape:connector-curvature="0" />
          <path
             d="m 155,332.12 6.5,13 h -13 z"
             style="fill:none;stroke:#000000;stroke-width:1;stroke-linecap:butt;stroke-linejoin:miter;stroke-miterlimit:10;stroke-dasharray:none;stroke-opacity:1"
             id="path1343"
             inkscape:connector-curvature="0" />
        </g>
        <g
           id="g1345"
           transform="scale(2.9964747)">
          <path
             d="m 110,377 h 91 v 29 h -91 z"
             style="fill:#ffffff;fill-opacity:1;fill-rule:nonzero;stroke:none"
             id="path1347"
             inkscape:connector-curvature="0" />
          <text
             transform="translate(125.65625,388)"
             style="font-variant:normal;font-weight:normal;font-size:11px;font-family:Verdana;-inkscape-font-specification:Verdana;writing-mode:lr-tb;fill:#000000;fill-opacity:1;fill-rule:nonzero;stroke:none"
             id="text1351">
            <tspan
               x="0 9.0019531 18.003906 24.857422 27.875977 34.836914 41.69043 50.692383"
               y="0"
               sodipodi:role="line"
               id="tspan1349">&lt;&lt;bind&gt;&gt;</tspan>
          </text>
          <text
             transform="translate(110.32813,403)"
             style="font-variant:normal;font-weight:normal;font-size:11px;font-family:Verdana;-inkscape-font-specification:Verdana;writing-mode:lr-tb;fill:#000000;fill-opacity:1;fill-rule:nonzero;stroke:none"
             id="text1355">
            <tspan
               x="0 9.0019531"
               y="0"
               sodipodi:role="line"
               id="tspan1353">&lt;T</tspan>
          </text>
          <text
             transform="translate(126.09375,403)"
             style="font-variant:normal;font-weight:normal;font-size:14px;font-family:'Times New Roman';-inkscape-font-specification:TimesNewRomanPSMT;writing-mode:lr-tb;fill:#000000;fill-opacity:1;fill-rule:nonzero;stroke:none"
             id="text1359">
            <tspan
               x="0"
               y="0"
               id="tspan1357">→</tspan>
          </text>
          <text
             transform="translate(140.09375,403)"
             style="font-variant:normal;font-weight:normal;font-size:11px;font-family:Verdana;-inkscape-font-specification:Verdana;writing-mode:lr-tb;fill:#000000;fill-opacity:1;fill-rule:nonzero;stroke:none"
             id="text1363">
            <tspan
               x="0 7.6806641 14.641602 21.248047 25.58252 34.058105 40.664551 44.999023 51.605469"
               y="0"
               sodipodi:role="line"
               id="tspan1361">ChatData&gt;</tspan>
          </text>
        </g>
        <g
           id="g1365"
           transform="matrix(2.9964747,0,0,2.9964747,1.4982374,1.4982374)">
          <path
             d="M 139,81 H 555 V 191 H 139 Z"
             style="fill:#ffffff;fill-opacity:1;fill-rule:nonzero;stroke:none"
             id="path1367"
             inkscape:connector-curvature="0" />
          <path
             d="M 139,81 H 555 V 191 H 139 Z"
             style="fill:none;stroke:#000000;stroke-width:1;stroke-linecap:butt;stroke-linejoin:miter;stroke-miterlimit:10;stroke-dasharray:none;stroke-opacity:1"
             id="path1369"
             inkscape:connector-curvature="0" />
        </g>
      </g>
    </g>
    <g
       id="g1371"
       transform="matrix(0.08466666,0,0,0.08466666,-454.78389,-130.26363)">
      <g
         id="g1373"
         clip-path="url(#clipPath1377)">
        <g
           id="g1379"
           transform="scale(2.9964747)">
          <path
             d="m 139,105 h 418 v 1 H 139 Z"
             style="fill:#9a9a9a;fill-opacity:1;fill-rule:nonzero;stroke:none"
             id="path1381"
             inkscape:connector-curvature="0" />
          <path
             d="m 556,106 h 1 v -1"
             style="fill:#eeeeee;fill-opacity:1;fill-rule:nonzero;stroke:none"
             id="path1383"
             inkscape:connector-curvature="0" />
          <path
             d="m 139,105 h 1 v 1 h -1 z"
             style="fill:#9a9a9a;fill-opacity:1;fill-rule:nonzero;stroke:none"
             id="path1385"
             inkscape:connector-curvature="0" />
          <path
             d="m 139,160 h 418 v 1 H 139 Z"
             style="fill:#9a9a9a;fill-opacity:1;fill-rule:nonzero;stroke:none"
             id="path1387"
             inkscape:connector-curvature="0" />
          <path
             d="m 556,161 h 1 v -1"
             style="fill:#eeeeee;fill-opacity:1;fill-rule:nonzero;stroke:none"
             id="path1389"
             inkscape:connector-curvature="0" />
          <path
             d="m 139,160 h 1 v 1 h -1 z"
             style="fill:#9a9a9a;fill-opacity:1;fill-rule:nonzero;stroke:none"
             id="path1391"
             inkscape:connector-curvature="0" />
          <text
             transform="translate(316.90625,96)"
             style="font-variant:normal;font-weight:bold;font-size:12px;font-family:Verdana;-inkscape-font-specification:Verdana-Bold;writing-mode:lr-tb;fill:#000000;fill-opacity:1;fill-rule:nonzero;stroke:none"
             id="text1395">
            <tspan
               x="0 8.6835938 17.232422 25.248047 30.714844 40.675781 48.691406 54.158203"
               y="0"
               sodipodi:role="line"
               id="tspan1393">ChatData</tspan>
          </text>
          <text
             transform="translate(143,123)"
             style="font-variant:normal;font-weight:normal;font-size:12px;font-family:Verdana;-inkscape-font-specification:Verdana;writing-mode:lr-tb;fill:#000000;fill-opacity:1;fill-rule:nonzero;stroke:none"
             id="text1399">
            <tspan
               x="0 5.4492188 9.6679688 21.339844 28.488281 34.740234 40.992188 48.199219 55.675781 62.824219 68.273438 76.476562 81.205078 86.326172 89.619141 97.212891"
               y="0"
               sodipodi:role="line"
               id="tspan1397">- message:String</tspan>
          </text>
          <text
             transform="translate(143,137)"
             style="font-variant:normal;font-weight:normal;font-size:12px;font-family:Verdana;-inkscape-font-specification:Verdana;writing-mode:lr-tb;fill:#000000;fill-opacity:1;fill-rule:nonzero;stroke:none"
             id="text1403">
            <tspan
               x="0 5.4492188 9.6679688 15.919922 23.513672 30.720703 38.314453 45.908203 53.056641 56.349609 61.798828 70.001953 74.730469 79.851562 83.144531 90.738281"
               y="0"
               sodipodi:role="line"
               id="tspan1401">- channel:String</tspan>
          </text>
          <text
             transform="translate(143,151)"
             style="font-variant:normal;font-weight:normal;font-size:12px;font-family:Verdana;-inkscape-font-specification:Verdana;writing-mode:lr-tb;fill:#000000;fill-opacity:1;fill-rule:nonzero;stroke:none"
             id="text1407">
            <tspan
               x="0 5.4492188 9.6679688 15.919922 23.068359 30.662109 38.138672 45.287109 50.408203 59.384766 66.591797 78.263672 85.412109 90.861328 99.064453 103.79297 108.91406 112.20703 119.80078 127.27734"
               y="0"
               sodipodi:role="line"
               id="tspan1405">- senderName:String</tspan>
          </text>
          <text
             transform="translate(143,178)"
             style="font-variant:normal;font-weight:normal;font-size:12px;font-family:Verdana;-inkscape-font-specification:Verdana;writing-mode:lr-tb;fill:#000000;fill-opacity:1;fill-rule:nonzero;stroke:none"
             id="text1411">
            <tspan
               x="0 9.8203125 14.039062 22.417969 30.011719 37.21875 41.947266 51.193359 58.400391 63.128906 70.335938 75.785156 87.457031 94.605469 100.85742 107.10938 114.31641 121.79297 128.94141 134.39062 142.59375 147.32227 152.44336 155.73633 163.33008 170.80664 175.17188 179.39062 185.64258 193.23633 200.44336 208.03711 215.63086 222.7793 226.07227 231.52148 239.72461 244.45312 249.57422 252.86719 260.46094 267.9375 272.30273 276.52148 282.77344 289.92188 297.51562 304.99219 312.14062 317.26172 326.23828 333.44531 345.11719 352.26562 357.71484 365.91797 370.64648 375.76758 379.06055 386.6543 394.13086"
               y="0"
               sodipodi:role="line"
               id="tspan1409">+ ChatData(message:String, channel:String, senderName:String)</tspan>
          </text>
        </g>
      </g>
    </g>
    <path
       inkscape:connector-curvature="0"
       id="path1423"
       style="fill:#000000;fill-opacity:1;fill-rule:nonzero;stroke:none;stroke-width:0.25370151"
       d="m -440.79225,-16.521424 -10e-4,-0.761105 0.25371,-5.07e-4 10e-4,0.761104 z m -0.003,-1.522209 -10e-4,-0.761105 0.2537,-5.07e-4 0.001,0.761104 z m -0.003,-1.522202 -10e-4,-0.761104 0.2537,-5.07e-4 10e-4,0.761104 z m -0.003,-1.522209 -0.001,-0.761104 0.2537,-5.07e-4 10e-4,0.761104 z m -0.003,-1.522209 -10e-4,-0.761104 0.2537,-5.07e-4 0.001,0.761104 z m -0.003,-1.522209 -10e-4,-0.761104 0.2537,-5.07e-4 0.001,0.761104 z m -0.003,-1.522201 -10e-4,-0.761104 0.2537,-5.08e-4 10e-4,0.761105 z m -0.003,-1.522209 -0.001,-0.761104 0.2537,-5.08e-4 10e-4,0.761105 z m -0.003,-1.522209 -10e-4,-0.761104 0.2537,-5.08e-4 0.001,0.761105 z m -0.003,-1.522201 -10e-4,-0.761105 0.2537,-5.07e-4 0.001,0.761104 z m -0.003,-1.522209 -10e-4,-0.761105 0.2537,-5.07e-4 10e-4,0.761104 z m -0.003,-1.522209 -0.001,-0.761105 0.2537,-5.07e-4 10e-4,0.761104 z m -0.003,-1.522209 -10e-4,-0.761105 0.2537,-5.07e-4 0.001,0.761104 z m -0.003,-1.522202 -10e-4,-0.761112 0.25371,-5.07e-4 10e-4,0.761112 z m -0.002,-1.522277 -8.6e-4,-0.761112 0.2537,-2.54e-4 8.6e-4,0.761112 z m -10e-4,-1.522288 -4.1e-4,-0.761112 0.2537,-1.39e-4 4.1e-4,0.761112 z m -5.9e-4,-1.52227 -1e-5,-0.2106 v -0.550512 h 0.25371 v 0.550497 0.2106 z m -1e-5,-1.522216 v -0.761105 h 0.25371 v 0.761105 z m 0,-1.522209 v -0.761105 h 0.25371 v 0.761105 z m 0,-1.522209 v -0.761105 h 0.25371 v 0.761105 z m 0,-1.522209 v -0.761105 h 0.25371 v 0.761105 z m 0,-1.522209 v -0.761105 h 0.25371 v 0.761105 z m 0,-1.522209 v -0.761105 h 0.25371 v 0.761105 z m 0,-1.522209 v -0.761105 h 0.25371 v 0.761105 z m 0,-1.522209 v -0.761105 h 0.25371 v 0.761105 z m 0,-1.522209 v -0.761105 h 0.25371 v 0.761105 z m 0,-1.522209 v -0.761105 h 0.25371 v 0.761105 z m 0,-1.522209 v -0.761105 h 0.25371 v 0.761105 z m 0,-1.522209 v -0.761105 h 0.25371 v 0.761105 z m 0,-1.522209 v -0.761105 h 0.25371 v 0.761105 z m 0,-1.522209 v -0.761105 h 0.25371 v 0.761105 z m 0,-1.522209 v -0.761105 h 0.25371 v 0.761105 z m 0,-1.522209 v -0.761105 h 0.25371 v 0.761105 z m 0,-1.522209 v -0.76111 h 0.25371 v 0.76111 z m 0,-1.522209 v -0.761105 h 0.25371 v 0.761105 z m 0,-1.522209 v -0.76111 h 0.25371 v 0.76111 z m 0,-1.522209 v -0.761105 h 0.25371 v 0.761105 z m 0,-1.522209 v -0.761105 h 0.25371 v 0.761105 z m 0,-1.522209 v -0.761105 h 0.25371 v 0.761105 z m 0,-1.522209 v -0.761105 h 0.25371 v 0.761105 z m 0,-1.522209 v -0.761105 h 0.25371 v 0.761105 z m 0,-1.522209 v -0.761105 h 0.25371 v 0.761105 z m 0,-1.522209 v -0.761105 h 0.25371 v 0.761105 z m 0,-1.522209 v -0.761105 h 0.25371 v 0.761105 z m 0,-1.522209 v -0.761105 h 0.25371 v 0.761105 z m 0,-1.522209 v -0.761105 h 0.25371 v 0.761105 z m 0,-1.522209 v -0.761105 h 0.25371 v 0.761105 z m 0,-1.522209 v -0.761105 h 0.25371 v 0.761105 z m 0,-1.522209 v -0.761105 h 0.25371 v 0.761105 z m 0,-1.522209 v -0.761105 h 0.25371 v 0.761105 z m 0,-1.522209 v -0.464302 c 0,-0.114927 0.004,-0.226142 0.0114,-0.33365 l 0.25307,0.01794 c -0.007,0.101529 -0.0108,0.206767 -0.0108,0.315714 v 0.464302 h -0.2537 z m 0.14681,-1.557446 c 0.0855,-0.276948 0.20827,-0.517822 0.36832,-0.722623 l 0.1999,0.156224 c -0.14089,0.180278 -0.24949,0.394024 -0.3258,0.641238 z m 0.97253,-1.234278 c 0.21656,-0.119466 0.46377,-0.207112 0.74163,-0.262941 l 0.05,0.248731 c -0.25231,0.05069 -0.47533,0.129479 -0.66906,0.236354 z m 1.55528,-0.336444 h 0.76111 v 0.253702 h -0.76111 z m 1.52221,0 h 0.76111 v 0.253702 h -0.76111 z m 1.52221,0 h 0.76111 v 0.253702 h -0.76111 z m 1.52221,0 h 0.76111 v 0.253702 h -0.76111 z m 1.52221,0 h 0.76111 v 0.253702 h -0.76111 z m 1.52221,0 h 0.76111 v 0.253702 h -0.76111 z m 1.52221,0 h 0.76111 v 0.253702 h -0.76111 z m 1.52221,0 h 0.7611 v 0.253702 h -0.7611 z m 1.52221,0 h 0.7611 v 0.253702 h -0.7611 z m 1.52221,0 h 0.7611 v 0.253702 h -0.7611 z m 1.52221,0 h 0.7611 v 0.253702 h -0.7611 z m 1.52221,0 h 0.7611 v 0.253702 h -0.7611 z" />
    <path
       inkscape:connector-curvature="0"
       id="path1425"
       style="fill:none;stroke:#000000;stroke-width:0.25370151;stroke-linecap:butt;stroke-linejoin:miter;stroke-miterlimit:10;stroke-dasharray:none;stroke-opacity:1"
       d="m -422.9748,-93.984316 3.29812,-1.64906 -3.29812,-1.64906" />
    <path
       inkscape:connector-curvature="0"
       id="path1429"
       style="fill:#ffffff;fill-opacity:1;fill-rule:nonzero;stroke:none;stroke-width:0.25370151"
       d="m -443.36732,-68.360464 h 5.32773 v 3.29812 h -5.32773 z" />
    <text
       id="text1433"
       style="font-variant:normal;font-weight:normal;font-size:2.79071641px;font-family:Verdana;-inkscape-font-specification:Verdana;writing-mode:lr-tb;fill:#000000;fill-opacity:1;fill-rule:nonzero;stroke:none;stroke-width:0.25370151"
       x="-443.28409"
       y="-65.569748">
      <tspan
         id="tspan1431"
         sodipodi:role="line"
         y="-65.569748"
         x="-443.28409 -441.24146 -439.78751"
         style="stroke-width:0.25370151">Use</tspan>
    </text>
    <path
       inkscape:connector-curvature="0"
       id="path1437"
       style="fill:#000000;fill-opacity:1;fill-rule:nonzero;stroke:none;stroke-width:0.25370151"
       d="m -247.89032,-0.62216425 h 0.76111 v 0.2537015 h -0.76111 z m 1.52221,0 h 0.76111 v 0.2537015 h -0.76111 z m 1.54034,-0.0314488 c 0.25411,-0.0324256 0.48212,-0.0898433 0.68402,-0.17225317 l 0.0959,0.234887 c -0.22246,0.0907795 -0.47172,0.15378877 -0.74776,0.18902284 z m 1.27717,-0.55538305 c 0.16362,-0.1607783 0.2941,-0.3555145 0.39142,-0.5841985 l 0.23345,0.099365 c -0.11049,0.259562 -0.2595,0.4814975 -0.44705,0.6657888 z m 0.57189,-1.2666098 c 0.0237,-0.1733898 0.0356,-0.3589597 0.0356,-0.5567226 v -0.2213469 h 0.2537 v 0.2213469 c -1e-5,0.2092073 -0.0127,0.4062497 -0.0379,0.5911143 z m 0.0356,-1.539174 v -0.7611045 h 0.2537 v 0.7611045 z m 0,-1.522209 v -0.7611045 h 0.2537 v 0.7611045 z m 0,-1.522209 v -0.7611045 h 0.2537 v 0.7611045 z m 0,-1.522209 v -0.7611045 h 0.2537 v 0.7611045 z m 0,-1.5222091 v -0.761104 h 0.2537 v 0.761104 z m 0,-1.522209 v -0.761104 h 0.2537 v 0.761104 z m 0,-1.522209 v -0.761104 h 0.2537 v 0.761104 z m 0,-1.522209 v -0.761104 h 0.2537 v 0.761104 z m 0,-1.522209 v -0.761104 h 0.2537 v 0.761104 z m 0,-1.522209 v -0.761104 h 0.2537 v 0.761104 z m 0,-1.522209 v -0.761104 h 0.2537 v 0.761104 z m 0,-1.522209 v -0.761104 h 0.2537 v 0.761104 z m 0,-1.522209 v -0.761104 h 0.2537 v 0.761104 z m 0,-1.522209 v -0.761104 h 0.2537 v 0.761104 z m 0,-1.522209 v -0.761104 h 0.2537 v 0.761104 z m 0,-1.522209 v -0.761104 h 0.2537 v 0.761104 z m 0,-1.522209 v -0.761104 h 0.2537 v 0.761104 z m 0,-1.522209 v -0.761104 h 0.2537 v 0.761104 z m 0,-1.522209 v -0.761104 h 0.2537 v 0.761104 z m 0,-1.522217 v -0.761104 h 0.2537 v 0.761104 z m 0,-1.522201 v -0.761104 h 0.2537 v 0.761104 z m 0,-1.522209 v -0.761104 h 0.2537 v 0.761104 z m 0,-1.522209 v -0.761104 h 0.2537 v 0.761104 z m 0,-1.522209 v -0.761104 h 0.2537 v 0.761104 z m 0,-1.522209 V -41.3089 h 0.2537 v 0.761104 z m 0,-1.522209 v -0.761104 h 0.2537 v 0.761104 z m 0,-1.522209 v -0.761104 h 0.2537 v 0.761104 z m 0,-1.522209 v -0.761104 h 0.2537 v 0.761104 z m 0,-1.522209 v -0.761104 h 0.2537 v 0.761104 z m 0,-1.522209 v -0.761104 h 0.2537 v 0.761104 z m 0,-1.522209 v -0.761104 h 0.2537 v 0.761104 z m 0,-1.522209 v -0.761104 h 0.2537 v 0.761104 z m 0,-1.522209 v -0.761097 h 0.2537 v 0.761097 z m 0,-1.522209 v -0.761104 h 0.2537 v 0.761104 z m 0,-1.522209 v -0.761104 h 0.2537 v 0.761104 z m 0,-1.522217 v -0.761096 h 0.2537 v 0.761096 z m 0,-1.522209 v -0.761096 h 0.2537 v 0.761096 z m 0,-1.522193 v -0.761112 h 0.2537 v 0.761112 z m 0,-1.522217 v -0.761104 h 0.2537 v 0.761104 z m 0,-1.522209 v -0.761112 h 0.2537 v 0.761112 z m 0,-1.522209 v -0.761107 h 0.2537 v 0.761107 z m 0,-1.522209 v -0.761099 h 0.2537 v 0.761099 z m 0,-1.522209 v -0.761104 h 0.2537 v 0.761104 z m 0,-1.522209 v -0.761104 h 0.2537 v 0.761104 z m 0,-1.522209 v -0.761104 h 0.2537 v 0.761104 z m 0,-1.522209 v -0.761104 h 0.2537 v 0.761104 z m 0,-1.522209 v -0.761104 h 0.2537 v 0.761104 z m 0,-1.522209 v -0.761104 h 0.2537 v 0.761104 z m 0,-1.522209 v -0.761104 h 0.2537 v 0.761104 z m 0,-1.522209 v -0.761104 h 0.2537 v 0.761104 z m 0,-1.522209 v -0.761104 h 0.2537 v 0.761104 z m 0,-1.522209 v -0.761104 h 0.2537 v 0.761104 z m 0,-1.522209 v -0.761104 h 0.2537 v 0.761104 z m 0,-1.522209 v -0.761104 h 0.2537 v 0.761104 z m 0,-1.522209 v -0.761104 h 0.2537 v 0.761104 z m 0,-1.522209 v -0.761104 h 0.2537 v 0.761104 z m 0,-1.522209 v -0.761104 h 0.2537 v 0.761104 z m 0,-1.522209 v -0.761104 h 0.2537 v 0.761104 z m 0,-1.522209 v -0.761104 h 0.2537 v 0.761104 z m 0,-1.522209 v -0.761104 h 0.2537 v 0.761104 z m 0,-1.522209 v -0.761104 h 0.2537 v 0.761104 z m 0,-1.522209 v -0.761104 h 0.2537 v 0.761104 z m 0,-1.522209 v -0.761104 h 0.2537 v 0.761104 z m 0,-1.522209 v -0.761103 h 0.2537 v 0.761103 z m 0,-1.522213 v -0.7611 h 0.2537 v 0.7611 z m -0.0647,-1.52684 c -0.049,-0.25253 -0.12589,-0.47602 -0.23065,-0.67047 l 0.22335,-0.12032 c 0.11698,0.21716 0.20242,0.46463 0.25635,0.74244 z m -0.67133,-1.20235 c -0.17939,-0.14297 -0.39257,-0.25327 -0.6395,-0.33088 l 0.0761,-0.24203 c 0.27704,0.0871 0.51756,0.2119 0.72157,0.37453 z m -1.33829,-0.45778 c -0.10767,-0.008 -0.21953,-0.0118 -0.3356,-0.0116 l -0.44497,7.7e-4 -5.1e-4,-0.2537 0.44491,-7.4e-4 c 0.12245,-2.4e-4 0.2407,0.004 0.35477,0.0123 l -0.0187,0.25301 z m -1.54168,-0.01 -0.7611,10e-4 -5.1e-4,-0.25371 0.7611,-0.001 z m -1.52221,0.003 -0.7611,10e-4 -5.1e-4,-0.2537 0.76111,-0.001 z m -1.52221,0.003 -0.7611,10e-4 -5.1e-4,-0.2537 0.76111,-0.001 z m -1.5222,0.003 -0.76111,10e-4 -5.1e-4,-0.2537 0.76111,-0.001 z m -1.52221,0.003 -0.76111,10e-4 -5.1e-4,-0.2537 0.76111,-0.001 z m -1.52221,0.003 -0.76111,10e-4 -5e-4,-0.2537 0.7611,-0.001 z m -1.52221,0.003 -0.76111,10e-4 -5e-4,-0.2537 0.7611,-0.001 5.1e-4,0.25371 z m -1.52221,0.003 -0.76111,10e-4 -5e-4,-0.2537 0.7611,-0.001 z m -1.52219,0.003 -0.76111,10e-4 -5.1e-4,-0.25371 0.76111,-0.001 z m -1.52221,0.003 -0.76111,10e-4 -5.1e-4,-0.2537 0.76111,-0.001 z m -1.52221,0.003 -0.76111,10e-4 -5e-4,-0.2537 0.7611,-0.001 z m -1.52221,0.003 -0.76111,10e-4 -5e-4,-0.2537 0.7611,-0.001 z m -1.52221,0.003 -0.76111,0.001 -5e-4,-0.2537 0.7611,-0.001 z m -1.52221,0.003 -0.7611,0.001 -5.1e-4,-0.2537 0.7611,-0.001 z m -1.52221,0.003 -0.7611,0.001 -5.1e-4,-0.2537 0.7611,-0.001 z m -1.52221,0.003 -0.76109,0.001 -5e-4,-0.2537 0.76108,-0.001 z m -1.52219,0.003 -0.76111,0.001 -5e-4,-0.25371 0.7611,-0.001 z m -1.52221,0.003 -0.76111,0.001 -5e-4,-0.2537 0.7611,-0.001 z m -1.52221,0.003 -0.7611,0.001 -5.1e-4,-0.2537 0.7611,-0.001 z m -1.52221,0.003 -0.7611,0.001 -5.1e-4,-0.2537 0.7611,-0.001 z m -1.52221,0.003 -0.7611,0.001 -5.1e-4,-0.25371 0.76111,-0.001 5e-4,0.2537 z m -1.52221,0.003 -0.7611,0.001 -5.1e-4,-0.2537 0.76111,-0.001 z m -1.52221,0.003 -0.7611,0.001 -5.1e-4,-0.2537 0.76111,-0.001 z m -1.5222,0.003 -0.76111,0.001 -5.1e-4,-0.2537 0.76111,-0.001 z m -1.52221,0.003 -0.76109,0.001 -5.1e-4,-0.2537 0.76109,-0.001 z m -1.52221,0.003 -0.76109,0.001 -5.1e-4,-0.25371 0.76109,-0.001 5.1e-4,0.2537 z m -1.5222,0.003 -0.7611,0.001 -5.1e-4,-0.2537 0.76111,-0.001 z m -1.52221,0.003 -0.7611,0.001 -5.1e-4,-0.2537 0.76111,-0.001 z m -1.5222,0.003 -0.76111,0.001 -5.1e-4,-0.2537 0.76111,-0.001 z m -1.52221,0.003 -0.76111,0.001 -5.1e-4,-0.2537 0.76111,-0.001 z m -1.52221,0.003 -0.76111,0.001 -5e-4,-0.2537 0.7611,-0.001 z m -1.5222,0.003 -0.7611,0.001 -5.1e-4,-0.2537 0.76111,-0.001 z m -1.52221,0.003 -0.7611,0.001 -5.1e-4,-0.2537 0.76111,-0.001 z m -1.5222,0.003 -0.76111,0.001 -5.1e-4,-0.25371 0.76111,-0.001 z m -1.52221,0.003 -0.76111,0.001 -5e-4,-0.2537 0.7611,-0.001 z m -1.52221,0.003 -0.76111,0.001 -5e-4,-0.2537 0.7611,-0.001 5.1e-4,0.25371 z m -1.52221,0.003 -0.76111,0.001 -5e-4,-0.2537 0.7611,-0.001 z m -1.52221,0.003 -0.7611,0.001 -5.1e-4,-0.25371 0.7611,-0.001 5.1e-4,0.2537 z m -1.52221,0.003 -0.7611,0.001 -5.1e-4,-0.2537 0.7611,-0.001 z m -1.52221,0.003 -0.7611,0.001 -5.1e-4,-0.2537 0.7611,-0.001 z m -1.52221,0.003 -0.76108,0.001 -5.1e-4,-0.2537 0.76109,-0.001 5.1e-4,0.25371 z m -1.52221,0.003 -0.76108,0.001 -5.1e-4,-0.25371 0.76109,-0.001 5.1e-4,0.2537 z m -1.52219,0.003 -0.7611,0.001 -5.1e-4,-0.2537 0.76111,-0.001 z m -1.52221,0.003 -0.7611,0.001 -5.1e-4,-0.2537 0.76111,-0.001 z" />
    <path
       inkscape:connector-curvature="0"
       id="path1439"
       style="fill:none;stroke:#000000;stroke-width:0.25370151;stroke-linecap:butt;stroke-linejoin:miter;stroke-miterlimit:10;stroke-dasharray:none;stroke-opacity:1"
       d="m -310.37953,-106.30152 -3.29558,1.65413 3.30066,1.64399" />
    <path
       inkscape:connector-curvature="0"
       id="path1443"
       style="fill:#ffffff;fill-opacity:1;fill-rule:nonzero;stroke:none;stroke-width:0.25370151"
       d="m -265.01517,-106.41569 h 5.32773 v 3.29812 h -5.32773 z" />
    <text
       id="text1447"
       style="font-variant:normal;font-weight:normal;font-size:2.79071641px;font-family:Verdana;-inkscape-font-specification:Verdana;writing-mode:lr-tb;fill:#000000;fill-opacity:1;fill-rule:nonzero;stroke:none;stroke-width:0.25370151"
       x="-264.93192"
       y="-103.62497">
      <tspan
         id="tspan1445"
         sodipodi:role="line"
         y="-103.62497"
         x="-264.93192 -262.88931 -261.43533"
         style="stroke-width:0.25370151">Use</tspan>
    </text>
    <path
       inkscape:connector-curvature="0"
       id="path1451"
       style="fill:#ffffff;fill-opacity:1;fill-rule:nonzero;stroke:none;stroke-width:0.25370151"
       d="m -343.28208,-15.717403 h 95.39176 v 30.44418 h -95.39176 z" />
    <path
       inkscape:connector-curvature="0"
       id="path1453"
       style="fill:none;stroke:#000000;stroke-width:0.25370151;stroke-linecap:butt;stroke-linejoin:miter;stroke-miterlimit:10;stroke-dasharray:none;stroke-opacity:1"
       d="m -343.28208,-15.717403 h 95.39176 v 30.44418 h -95.39176 z" />
    <g
       id="g1463"
       transform="matrix(0.2537015,0,0,0.2537015,-454.78389,-130.26363)">
      <path
         d="m 439,475 h 378 v 1 H 439 Z"
         style="fill:#9a9a9a;fill-opacity:1;fill-rule:nonzero;stroke:none"
         id="path1465"
         inkscape:connector-curvature="0" />
      <path
         d="m 816,476 h 1 v -1"
         style="fill:#eeeeee;fill-opacity:1;fill-rule:nonzero;stroke:none"
         id="path1467"
         inkscape:connector-curvature="0" />
      <path
         d="m 439,475 h 1 v 1 h -1 z"
         style="fill:#9a9a9a;fill-opacity:1;fill-rule:nonzero;stroke:none"
         id="path1469"
         inkscape:connector-curvature="0" />
      <path
         d="m 439,502 h 378 v 1 H 439 Z"
         style="fill:#9a9a9a;fill-opacity:1;fill-rule:nonzero;stroke:none"
         id="path1471"
         inkscape:connector-curvature="0" />
      <path
         d="m 816,503 h 1 v -1"
         style="fill:#eeeeee;fill-opacity:1;fill-rule:nonzero;stroke:none"
         id="path1473"
         inkscape:connector-curvature="0" />
      <path
         d="m 439,502 h 1 v 1 h -1 z"
         style="fill:#9a9a9a;fill-opacity:1;fill-rule:nonzero;stroke:none"
         id="path1475"
         inkscape:connector-curvature="0" />
      <text
         transform="translate(591.42188,466)"
         style="font-variant:normal;font-weight:bold;font-size:12px;font-family:Verdana;-inkscape-font-specification:Verdana-Bold;writing-mode:lr-tb;fill:#000000;fill-opacity:1;fill-rule:nonzero;stroke:none"
         id="text1479">
        <tspan
           x="0 8.6835938 17.232422 25.248047 30.714844 38.519531 44.484375 52.5 65.197266"
           y="0"
           sodipodi:role="line"
           id="tspan1477">ChatFrame</tspan>
      </text>
      <text
         transform="translate(443,493)"
         style="font-variant:normal;font-weight:normal;font-size:12px;font-family:Verdana;-inkscape-font-specification:Verdana;writing-mode:lr-tb;fill:#000000;fill-opacity:1;fill-rule:nonzero;stroke:none"
         id="text1483">
        <tspan
           x="0 5.4492188 9.6679688 17.144531 24.738281 32.214844 35.507812 38.800781 45.052734 52.646484 59.794922 64.916016 70.365234 74.583984 81.820312 89.414062 96.890625 100.18359 103.47656 109.72852 117.32227 124.5293 132.00586 135.29883 142.44727 152.26758 160.64648 168.24023 175.44727 180.17578 189.42188 196.62891 201.35742 208.56445"
           y="0"
           sodipodi:role="line"
           id="tspan1481">- publisher: Publishable&lt;ChatData&gt;</tspan>
      </text>
      <text
         transform="translate(443,520)"
         style="font-variant:normal;font-weight:normal;font-size:12px;font-family:Verdana;-inkscape-font-specification:Verdana;writing-mode:lr-tb;fill:#000000;fill-opacity:1;fill-rule:nonzero;stroke:none"
         id="text1487">
        <tspan
           x="0 9.8203125"
           y="0"
           sodipodi:role="line"
           id="tspan1485">+</tspan>
      </text>
      <text
         transform="translate(457.03125,520)"
         style="font-style:italic;font-variant:normal;font-size:12px;font-family:Verdana;-inkscape-font-specification:Verdana-Italic;writing-mode:lr-tb;fill:#000000;fill-opacity:1;fill-rule:nonzero;stroke:none"
         id="text1491">
        <tspan
           x="0 6.2519531 11.373047 18.521484 25.728516 30.457031 37.605469 44.501953 49.623047 56.830078 68.507812 75.65625 81.105469 89.308594 94.037109 99.158203 102.45117 110.04492 117.50391 121.86914 126.08789 133.32422 140.91797 148.39453 151.6875 154.98047 161.23242 168.82617 176.0332 183.50977 186.80273 193.95117 203.77148 212.15039 219.74414 226.95117 231.67969 240.86719 248.07422 252.80273 260.00977 269.83008"
           y="0"
           sodipodi:role="line"
           id="tspan1489">createFrame(String, Publishable&lt;ChatData&gt;)</tspan>
      </text>
      <text
         transform="translate(732.29688,520)"
         style="font-variant:normal;font-weight:normal;font-size:12px;font-family:Verdana;-inkscape-font-specification:Verdana;writing-mode:lr-tb;fill:#000000;fill-opacity:1;fill-rule:nonzero;stroke:none"
         id="text1495">
        <tspan
           x="0 5.4492188 9.6679688 18.046875 25.640625 32.847656 37.576172 44.472656 49.59375 56.800781 68.472656"
           y="0"
           sodipodi:role="line"
           id="tspan1493">: ChatFrame</tspan>
      </text>
      <text
         transform="translate(443,534)"
         style="font-variant:normal;font-weight:normal;font-size:12px;font-family:Verdana;-inkscape-font-specification:Verdana;writing-mode:lr-tb;fill:#000000;fill-opacity:1;fill-rule:nonzero;stroke:none"
         id="text1499">
        <tspan
           x="0 9.8203125 14.039062 20.291016 25.412109 32.560547 39.767578 44.496094 51.644531 60.023438 67.617188 74.824219 82.417969 90.011719 97.160156 100.45312 105.90234 112.1543 119.74805 126.95508 134.54883 142.14258 149.29102 152.58398 158.0332 166.23633 170.96484 176.08594 179.37891 186.97266 194.44922 199.89844 205.34766 209.56641 216.66797 223.95117 227.24414"
           y="0"
           sodipodi:role="line"
           id="tspan1497">+ createChannel(channel:String): void</tspan>
      </text>
      <text
         transform="translate(443,562)"
         style="font-variant:normal;font-weight:normal;font-size:12px;font-family:Verdana;-inkscape-font-specification:Verdana;writing-mode:lr-tb;fill:#000000;fill-opacity:1;fill-rule:nonzero;stroke:none"
         id="text1507">
        <tspan
           x="0 9.8203125 14.039062 20.291016 27.439453 35.033203 42.509766 52.623047 59.771484 66.023438 72.275391 79.482422 86.958984 94.107422 99.556641 111.22852 118.37695 124.62891 130.88086 138.08789 145.56445 152.71289 158.16211 166.36523 171.09375 176.21484 179.50781 187.10156 194.57812 198.94336 203.16211 209.41406 217.00781 224.21484 231.80859 239.40234 246.55078 249.84375 255.29297 263.49609 268.22461 273.3457 276.63867 284.23242 291.70898 297.1582 302.60742 306.82617 313.92773 321.21094 324.50391"
           y="0"
           sodipodi:role="line"
           id="tspan1505">+ sendMessage(message:String, channel:String): void</tspan>
      </text>
    </g>
    <g
       id="g1517"
       transform="matrix(0.2537015,0,0,0.2537015,-454.65704,-130.13678)">
      <path
         d="M 742.42999,452.92001 742.06,349.12"
         style="fill:none;stroke:#000000;stroke-width:1;stroke-linecap:butt;stroke-linejoin:miter;stroke-miterlimit:10;stroke-dasharray:none;stroke-opacity:1"
         id="path1519"
         inkscape:connector-curvature="0" />
      <path
         d="m 742,332.12 8.56,16.97 -17,0.06 z"
         style="fill:none;stroke:#000000;stroke-width:1;stroke-linecap:butt;stroke-linejoin:miter;stroke-miterlimit:10;stroke-dasharray:none;stroke-opacity:1"
         id="path1521"
         inkscape:connector-curvature="0" />
    </g>
    <g
       id="g1523"
       transform="matrix(0.2537015,0,0,0.2537015,-454.78389,-130.26363)">
      <path
         d="m 721,386 h 43 v 13 h -43 z"
         style="fill:#ffffff;fill-opacity:1;fill-rule:nonzero;stroke:none"
         id="path1525"
         inkscape:connector-curvature="0" />
      <text
         transform="translate(720.54688,397)"
         style="font-variant:normal;font-weight:normal;font-size:11px;font-family:Verdana;-inkscape-font-specification:Verdana;writing-mode:lr-tb;fill:#000000;fill-opacity:1;fill-rule:nonzero;stroke:none"
         id="text1529">
        <tspan
           x="0 6.9555664 13.465332 17.799805 24.352539 31.313477 38.166992"
           y="0"
           sodipodi:role="line"
           id="tspan1527">Extends</tspan>
      </text>
    </g>
    <g
       id="g1531"
       transform="matrix(0.2537015,0,0,0.2537015,-454.65704,-130.13678)">
      <path
         d="m 404.5,448 v -3 h 1 v 3 z m 0,-6 v -3 h 1 v 3 z m 0,-6 v -3 h 1 v 3 z m 0,-6 v -3 h 1 v 3 z m 0,-6 v -3 h 1 v 3 z m 0,-6 v -3 h 1 v 3 z m 0,-6 v -3 h 1 v 3 z m 0,-6 v -3 h 1 v 3 z m 0,-6 v -3 h 1 v 3 z m 0,-6 v -3 h 1 v 3 z m 0,-6 v -3 h 1 v 3 z m 0,-6 v -3 h 1 v 3 z m 0,-6 v -3 h 1 v 3 z m 0,-6 v -3 h 1 v 3 z m 0,-6 v -3 h 1 v 3 z m 0,-6 v -3 h 1 v 3 z m 0,-6 v -3 h 1 v 3 z m 0,-6 v -3 h 1 v 3 z m 0,-6 v -3 h 1 v 3 z m 0,-6 v -3 h 1 v 3 z m 0,-6 v -3 h 1 v 3 z m 0,-6 v -3 h 1 v 3 z m 0,-6 v -3 h 1 v 3 z m 0,-6 v -2 c 0,-0.38657 0.0109,-0.76254 0.0328,-1.12793 l 0.99823,0.0597 c -0.0207,0.34568 -0.031,0.70175 -0.031,1.06824 v 2 h -1 z m 0.53033,-6.15341 c 0.31742,-1.09101 0.77713,-2.04587 1.37912,-2.8646 l 0.80567,0.59241 c -0.53201,0.72351 -0.94019,1.57404 -1.22458,2.55155 z m 3.68873,-4.95438 c 0.8439,-0.50387 1.8114,-0.88107 2.90246,-1.13162 l 0.22382,0.97461 c -0.98856,0.22699 -1.85977,0.56555 -2.61365,1.01565 z m 6.07165,-1.4989 c 0.0683,-10e-4 0.13626,-0.002 0.2038,-0.003 l 2.82296,-0.0309 0.0109,0.99994 -2.82291,0.0309 c -0.0657,7.1e-4 -0.13034,0.002 -0.19378,0.003 l -0.021,-0.99976 z m 6.02658,-0.067 2.99985,-0.0328 0.0109,0.99994 -2.99984,0.0328 -0.0109,-0.99994 z m 5.99964,-0.0657 2.99981,-0.0329 0.011,0.99994 -2.99982,0.0329 -0.011,-0.99994 z m 5.99963,-0.0657 2.99982,-0.0329 0.011,0.99994 -2.99981,0.0329 -0.011,-0.99994 z"
         style="fill:#000000;fill-opacity:1;fill-rule:nonzero;stroke:none"
         id="path1533"
         inkscape:connector-curvature="0" />
      <path
         d="m 424.19,304.29001 12.93,-6.64002 -13.07001,-6.35998"
         style="fill:none;stroke:#000000;stroke-width:1;stroke-linecap:butt;stroke-linejoin:miter;stroke-miterlimit:10;stroke-dasharray:none;stroke-opacity:1"
         id="path1535"
         inkscape:connector-curvature="0" />
    </g>
    <g
       id="g1537"
       transform="matrix(0.2537015,0,0,0.2537015,-454.78389,-130.26363)">
      <path
         d="m 394,375 h 21 v 13 h -21 z"
         style="fill:#ffffff;fill-opacity:1;fill-rule:nonzero;stroke:none"
         id="path1539"
         inkscape:connector-curvature="0" />
      <text
         transform="translate(394.34375,386)"
         style="font-variant:normal;font-weight:normal;font-size:11px;font-family:Verdana;-inkscape-font-specification:Verdana;writing-mode:lr-tb;fill:#000000;fill-opacity:1;fill-rule:nonzero;stroke:none"
         id="text1543">
        <tspan
           x="0 7.6806641 14.287109 17.305664"
           y="0"
           sodipodi:role="line"
           id="tspan1541">Call</tspan>
      </text>
      <path
         d="m 409,435 h 31 v 13 h -31 z"
         style="fill:#ffffff;fill-opacity:1;fill-rule:nonzero;stroke:none"
         id="path1545"
         inkscape:connector-curvature="0" />
      <text
         transform="translate(408.8125,446)"
         style="font-variant:normal;font-weight:normal;font-size:11px;font-family:Verdana;-inkscape-font-specification:Verdana;writing-mode:lr-tb;fill:#000000;fill-opacity:1;fill-rule:nonzero;stroke:none"
         id="text1549">
        <tspan
           x="0 6.9609375 13.637207 17.97168 20.990234 24.857422"
           y="0"
           sodipodi:role="line"
           id="tspan1547">notify</tspan>
      </text>
      <path
         d="m 396,276 h 39 v 13 h -39 z"
         style="fill:#ffffff;fill-opacity:1;fill-rule:nonzero;stroke:none"
         id="path1551"
         inkscape:connector-curvature="0" />
      <text
         transform="translate(396.42188,287)"
         style="font-variant:normal;font-weight:normal;font-size:11px;font-family:Verdana;-inkscape-font-specification:Verdana;writing-mode:lr-tb;fill:#000000;fill-opacity:1;fill-rule:nonzero;stroke:none"
         id="text1555">
        <tspan
           x="0 6.9609375 13.814453 20.667969 27.274414 31.608887"
           y="0"
           sodipodi:role="line"
           id="tspan1553">update</tspan>
      </text>
    </g>
    <g
       id="g1557"
       transform="matrix(0.2537015,0,0,0.2537015,-454.65704,-130.13678)">
      <path
         d="m 220.5,450 v -3 h 1 v 3 z m 0,-6 v -3 h 1 v 3 z m 0,-6 v -3 h 1 v 3 z m 0,-6 v -3 h 1 v 3 z m 0,-6 v -3 h 1 v 3 z m 0,-6 v -3 h 1 v 3 z m 0,-6 v -3 h 1 v 3 z m 0.29813,-6.20624 c 0.22389,-1.09537 0.57393,-2.06921 1.05008,-2.92148 l 0.87298,0.48774 c -0.4257,0.76199 -0.74014,1.63998 -0.94333,2.634 z m 3.07975,-5.29049 c 0.80916,-0.62494 1.75977,-1.10373 2.85184,-1.43641 l 0.29138,0.95661 c -0.97535,0.29715 -1.81935,0.72088 -2.53198,1.27124 z m 5.85317,-1.96143 C 230.14034,400.51395 230.56331,400.5 231,400.5 h 1.87247 v 1 H 231 c -0.41406,0 -0.81439,0.0132 -1.20099,0.0395 l -0.068,-0.99768 z m 6.14142,-0.0418 h 3 v 1 h -3 z m 6,0 h 3 v 1 h -3 z m 6,0 h 3 v 1 h -3 z m 6,0 h 3 v 1 h -3 z m 6,0 h 3 v 1 h -3 z m 6,0 h 3 v 1 h -3 z m 6,0 h 3 v 1 h -3 z m 6,0 h 3 v 1 h -3 z m 6,0 h 3 v 1 h -3 z m 6,0 h 3 v 1 h -3 z m 6,0 h 3 v 1 h -3 z m 6,0 h 3 v 1 h -3 z m 6,0 h 3 v 1 h -3 z m 6.20929,0.27359 c 1.09585,0.21295 2.07126,0.55038 2.92621,1.01227 l -0.47529,0.87982 c -0.76532,-0.41342 -1.6459,-0.71692 -2.64172,-0.91046 z m 5.3265,3.01129 c 0.63834,0.8056 1.12711,1.75522 1.46625,2.84888 l -0.95514,0.2962 c -0.30227,-0.97479 -0.73391,-1.81613 -1.29486,-2.52405 z m 1.99857,5.8331 c 0.0312,0.44544 0.0456,0.90695 0.0432,1.38452 l -0.008,1.76676 -1,-0.004 0.008,-1.76742 c 0.002,-0.4527 -0.0113,-0.88925 -0.0407,-1.30969 l 0.99756,-0.0698 z m 0.0224,6.15125 -0.013,2.99997 -1,-0.004 0.013,-2.99997 z m -0.0261,5.99994 -0.0131,2.99996 -1,-0.004 0.0131,-2.99997 1,0.004 z m -0.0261,5.99993 -0.0131,2.99997 -1,-0.004 0.0131,-2.99997 z m -0.0261,5.99994 -0.0131,2.99997 -1,-0.004 0.0131,-2.99997 z m -0.0261,5.99997 -0.0131,2.99997 -1,-0.004 0.0131,-2.99997 z m -0.0261,5.99994 -0.009,2.00321 -1,-0.004 0.009,-2.0032 1,0.004 z"
         style="fill:#000000;fill-opacity:1;fill-rule:nonzero;stroke:none"
         id="path1559"
         inkscape:connector-curvature="0" />
      <path
         d="m 314.34,435.85999 6.44,13.03002 6.56,-12.97"
         style="fill:none;stroke:#000000;stroke-width:1;stroke-linecap:butt;stroke-linejoin:miter;stroke-miterlimit:10;stroke-dasharray:none;stroke-opacity:1"
         id="path1561"
         inkscape:connector-curvature="0" />
    </g>
    <g
       id="g1563"
       transform="matrix(0.2537015,0,0,0.2537015,-454.78389,-130.26363)">
      <path
         d="m 261,395 h 21 v 13 h -21 z"
         style="fill:#ffffff;fill-opacity:1;fill-rule:nonzero;stroke:none"
         id="path1565"
         inkscape:connector-curvature="0" />
      <text
         transform="translate(261.34375,406)"
         style="font-variant:normal;font-weight:normal;font-size:11px;font-family:Verdana;-inkscape-font-specification:Verdana;writing-mode:lr-tb;fill:#000000;fill-opacity:1;fill-rule:nonzero;stroke:none"
         id="text1569">
        <tspan
           x="0 7.6806641 14.287109 17.305664"
           y="0"
           sodipodi:role="line"
           id="tspan1567">Call</tspan>
      </text>
      <path
         d="m 226,433 h 62 v 13 h -62 z"
         style="fill:#ffffff;fill-opacity:1;fill-rule:nonzero;stroke:none"
         id="path1571"
         inkscape:connector-curvature="0" />
      <text
         transform="translate(225.5,444)"
         style="font-variant:normal;font-weight:normal;font-size:11px;font-family:Verdana;-inkscape-font-specification:Verdana;writing-mode:lr-tb;fill:#000000;fill-opacity:1;fill-rule:nonzero;stroke:none"
         id="text1575">
        <tspan
           x="0 5.730957 12.283691 19.244629 26.098145 34.756348 41.609863 45.396484 51.949219 57.680176"
           y="0"
           sodipodi:role="line"
           id="tspan1573">sendObject</tspan>
      </text>
      <path
         d="m 329,432 h 31 v 13 h -31 z"
         style="fill:#ffffff;fill-opacity:1;fill-rule:nonzero;stroke:none"
         id="path1577"
         inkscape:connector-curvature="0" />
      <text
         transform="translate(328.8125,443)"
         style="font-variant:normal;font-weight:normal;font-size:11px;font-family:Verdana;-inkscape-font-specification:Verdana;writing-mode:lr-tb;fill:#000000;fill-opacity:1;fill-rule:nonzero;stroke:none"
         id="text1581">
        <tspan
           x="0 6.9609375 13.637207 17.97168 20.990234 24.857422"
           y="0"
           sodipodi:role="line"
           id="tspan1579">notify</tspan>
      </text>
    </g>
    <g
       id="g1583"
       transform="matrix(0.2537015,0,0,0.2537015,-454.65704,-131.1951)">
      <path
         d="m 160,560 h 170 l 14,14 v 46 H 160 Z"
         style="fill:#ffffff;fill-opacity:1;fill-rule:nonzero;stroke:none"
         id="path1585"
         inkscape:connector-curvature="0" />
      <path
         d="m 160,560 h 170 l 14,14 v 46 H 160 Z"
         style="fill:none;stroke:#000000;stroke-width:1;stroke-linecap:butt;stroke-linejoin:miter;stroke-miterlimit:10;stroke-dasharray:none;stroke-opacity:1"
         id="path1587"
         inkscape:connector-curvature="0" />
      <path
         d="m 330,560 v 14 h 14"
         style="fill:none;stroke:#000000;stroke-width:1;stroke-linecap:butt;stroke-linejoin:miter;stroke-miterlimit:10;stroke-dasharray:none;stroke-opacity:1"
         id="path1589"
         inkscape:connector-curvature="0" />
    </g>
    <g
       id="g1591"
       transform="matrix(0.2537015,0,0,0.2537015,-454.78389,-131.32195)">
      <text
         transform="translate(162,572)"
         style="font-variant:normal;font-weight:normal;font-size:12px;font-family:Verdana;-inkscape-font-specification:Verdana;writing-mode:lr-tb;fill:#000000;fill-opacity:1;fill-rule:nonzero;stroke:none"
         id="text1595">
        <tspan
           x="0 7.59375 14.876953 19.605469 22.898438 27.117188 34.21875 39.667969 45.117188 49.335938 55.587891 62.736328 70.330078 77.806641 84.058594 88.277344 93.005859 100.59961 107.74805 111.9668 118.21875 125.8125 133.01953"
           y="0"
           sodipodi:role="line"
           id="tspan1593">notify() sends the chat</tspan>
      </text>
      <text
         transform="translate(162,586)"
         style="font-variant:normal;font-weight:normal;font-size:12px;font-family:Verdana;-inkscape-font-specification:Verdana;writing-mode:lr-tb;fill:#000000;fill-opacity:1;fill-rule:nonzero;stroke:none"
         id="text1599">
        <tspan
           x="0 11.671875 18.820312 25.072266 31.324219 38.53125 46.007812 53.15625 57.375 62.103516 69.386719 73.605469 80.753906 87.960938 94.212891 101.80664 106.02539 113.30859 120.78516 127.03711 134.18555 139.30664 146.4082 153.55664"
           y="0"
           sodipodi:role="line"
           id="tspan1597">message to each observer</tspan>
      </text>
      <text
         transform="translate(162,600)"
         style="font-variant:normal;font-weight:normal;font-size:12px;font-family:Verdana;-inkscape-font-specification:Verdana;writing-mode:lr-tb;fill:#000000;fill-opacity:1;fill-rule:nonzero;stroke:none"
         id="text1603">
        <tspan
           x="0 3.2929688 10.886719 15.105469 19.833984 27.427734 34.576172 38.794922 46.078125 53.554688 59.806641 66.955078 72.076172 79.177734 86.326172 91.447266 97.699219 102.06445 106.2832 113.43164 120.5332 126.78516 133.93359 141.41016 146.13867 150.35742 155.08594 162.67969"
           y="0"
           sodipodi:role="line"
           id="tspan1601">in the observers, except the</tspan>
      </text>
      <text
         transform="translate(162,614)"
         style="font-variant:normal;font-weight:normal;font-size:12px;font-family:Verdana;-inkscape-font-specification:Verdana;writing-mode:lr-tb;fill:#000000;fill-opacity:1;fill-rule:nonzero;stroke:none"
         id="text1607">
        <tspan
           x="0 6.2519531 13.400391 20.994141 28.470703 31.763672 39.357422 46.833984 56.279297 63.755859 70.007812 77.15625 82.277344 89.378906 96.527344"
           y="0"
           sodipodi:role="line"
           id="tspan1605">sendingObserver</tspan>
      </text>
    </g>
    <path
       inkscape:connector-curvature="0"
       id="path1611"
       style="fill:#000000;fill-opacity:1;fill-rule:nonzero;stroke:none;stroke-width:0.25370151"
       d="m -367.38372,18.869327 h 0.76111 v 0.253704 h -0.76111 z m 1.52221,0 h 0.7611 v 0.253704 h -0.7611 z m 1.5222,0 h 0.76111 v 0.253704 h -0.76111 z m 1.52222,0 h 0.7611 v 0.253704 h -0.7611 z m 1.5222,0 h 0.76111 v 0.253704 h -0.76111 z m 1.52222,0 h 0.7611 v 0.253704 h -0.7611 z m 1.53968,-0.0079 c 0.26126,-0.01565 0.49845,-0.05458 0.71155,-0.116764 l 0.0711,0.243544 c -0.23135,0.06751 -0.48715,0.10966 -0.76744,0.126458 l -0.0152,-0.253238 z m 1.35799,-0.428523 c 0.18611,-0.137846 0.33929,-0.309059 0.45955,-0.513622 l 0.21871,0.128583 c -0.13771,0.234239 -0.31347,0.430556 -0.52725,0.588916 z m 0.71214,-1.178162 c 0.0504,-0.227305 0.0774,-0.478807 0.0812,-0.754516 l 0.25367,0.0035 c -0.004,0.293082 -0.033,0.561738 -0.0871,0.805942 l -0.24769,-0.05487 z m 0.0851,-1.519284 0.004,-0.761094 0.25371,0.0013 -0.004,0.761085 z m 0.007,-1.522197 0.004,-0.761094 0.2537,0.0013 -0.004,0.761086 -0.2537,-0.0013 z m 0.007,-1.522196 0.004,-0.761086 0.25369,0.0013 -0.004,0.761086 z m 0.007,-1.522172 0.004,-0.761111 0.25369,0.0013 -0.004,0.761103 z m 0.007,-1.5221969 0.004,-0.7611025 0.25369,0.00127 -0.004,0.7611025 z" />
    <path
       inkscape:connector-curvature="0"
       id="path1613"
       style="fill:#ffffff;fill-opacity:1;fill-rule:nonzero;stroke:none;stroke-width:0.25370151"
       d="m -332.11921,17.263792 h 43.63666 l 3.55182,3.551825 v 6.596236 h -47.18848 z" />
    <path
       inkscape:connector-curvature="0"
       id="path1615"
       style="fill:none;stroke:#000000;stroke-width:0.25370151;stroke-linecap:butt;stroke-linejoin:miter;stroke-miterlimit:10;stroke-dasharray:none;stroke-opacity:1"
       d="m -332.11921,17.263792 h 43.63666 l 3.55182,3.551825 v 6.596236 h -47.18848 z" />
    <path
       inkscape:connector-curvature="0"
       id="path1617"
       style="fill:none;stroke:#000000;stroke-width:0.25370151;stroke-linecap:butt;stroke-linejoin:miter;stroke-miterlimit:10;stroke-dasharray:none;stroke-opacity:1"
       d="m -288.48255,17.263792 v 3.551825 h 3.55182" />
    <g
       id="g1619"
       transform="matrix(0.2537015,0,0,0.2537015,-454.78389,-130.26363)">
      <text
         transform="translate(485,593)"
         style="font-variant:normal;font-weight:normal;font-size:12px;font-family:Verdana;-inkscape-font-specification:Verdana;writing-mode:lr-tb;fill:#000000;fill-opacity:1;fill-rule:nonzero;stroke:none"
         id="text1623">
        <tspan
           x="0 7.59375 15.070312 22.546875 29.753906 34.482422 41.630859 47.080078 52.529297 56.748047 64.224609 67.517578 73.769531 81.246094 84.539062 91.746094 98.847656 105.09961 109.31836 114.04688 121.64062 128.78906 133.00781 139.25977 146.85352 154.06055"
           y="0"
           sodipodi:role="line"
           id="tspan1621">update() displays the chat</tspan>
      </text>
      <text
         transform="translate(485,607)"
         style="font-variant:normal;font-weight:normal;font-size:12px;font-family:Verdana;-inkscape-font-specification:Verdana;writing-mode:lr-tb;fill:#000000;fill-opacity:1;fill-rule:nonzero;stroke:none"
         id="text1627">
        <tspan
           x="0 11.671875 18.820312 25.072266 31.324219 38.53125 46.007812 53.15625 57.375 60.667969 68.261719 72.480469 77.208984 84.802734 91.951172 96.169922 100.89844 108.04688 115.14844 119.87695 124.0957 131.30273 136.42383 143.57227"
           y="0"
           sodipodi:role="line"
           id="tspan1625">message in the text area</tspan>
      </text>
    </g>
    <g
       id="g1629"
       transform="matrix(0.2537015,0,0,0.2537015,-454.65704,-130.13678)">
      <path
         d="m 669,607.5 h 3 v 1 h -3 z m 6,0 h 3 v 1 h -3 z m 6,0 h 3 v 1 h -3 z m 6,0 h 2 c 0.367,0 0.72327,-0.0104 1.06891,-0.0311 l 0.0598,0.99817 C 689.7627,608.48901 689.38647,608.5 689,608.5 h -2 z m 5.8736,-0.49127 c 0.9776,-0.28522 1.8269,-0.69483 2.54803,-1.22888 l 0.59522,0.80359 c -0.81665,0.60491 -1.77106,1.06671 -2.86322,1.38525 z m 4.35937,-3.25348 c 0.44403,-0.75531 0.77594,-1.62842 0.99561,-2.61939 l 0.97632,0.21643 c -0.24238,1.09375 -0.61237,2.06366 -1.10987,2.90979 z m 1.31543,-5.59125 0.002,-0.1687 0.0154,-2.84808 1,0.005 -0.0154,2.85211 -0.002,0.1687 -1,-0.009 z m 0.0332,-6.01672 0.0162,-2.99994 1,0.005 -0.0162,2.99994 z m 0.0324,-5.99994 0.0162,-2.99994 1,0.005 -0.0162,2.99994 z m 0.0324,-5.99988 0.0162,-2.99994 1,0.005 -0.0162,2.99994 z m 0.0324,-5.99994 0.0112,-2.07019 1,0.005 -0.0112,2.07019 z"
         style="fill:#000000;fill-opacity:1;fill-rule:nonzero;stroke:none"
         id="path1631"
         inkscape:connector-curvature="0" />
      <path
         d="m 649.5,450 v -3 h 1 v 3 z m 0,-6 v -3 h 1 v 3 z m 0,-6 v -3 h 1 v 3 z m 0,-6 v -3 h 1 v 3 z m 0,-6 v -3 h 1 v 3 z m 0,-6 v -3 h 1 v 3 z m 0,-6 v -3 h 1 v 3 z m 0,-6 v -3 h 1 v 3 z m 0,-6 v -3 h 1 v 3 z m 0,-6 v -3 h 1 v 3 z m 0,-6 v -3 h 1 v 3 z m 0,-6 v -3 h 1 v 3 z m 0,-6 v -3 h 1 v 3 z m 0,-6 v -3 h 1 v 3 z m 0,-6 v -3 h 1 v 3 z m 0,-6 v -3 h 1 v 3 z m 0,-6 v -3 h 1 v 3 z m 0,-6 v -3 h 1 v 3 z m 0,-6 v -3 h 1 v 3 z m 0,-6 v -3 h 1 v 3 z m 0,-6 v -3 h 1 v 3 z m 0,-6 v -3 h 1 v 3 z m 0,-6 v -3 h 1 v 3 z m 0,-6 v -3 h 1 v 3 z m 0,-6 v -3 h 1 v 3 z m 0,-6 v -3 h 1 v 3 z m 0,-6 v -3 h 1 v 3 z m 0,-6 v -3 h 1 v 3 z m 0,-6 v -3 h 1 v 3 z m 0,-6 v -3 h 1 v 3 z m 0,-6 v -3 h 1 v 3 z m 0,-6 v -3 h 1 v 3 z m 0,-6 v -3 h 1 v 3 z m 0,-6 v -3 h 1 v 3 z m 0,-6 v -3 h 1 v 3 z m 0,-6 v -3 h 1 v 3 z m 0,-6 v -3 h 1 v 3 z m 0,-6 v -3 h 1 v 3 z m 0,-6 v -2 c 0,-0.36734 -0.0104,-0.72383 -0.0311,-1.06947 l 0.99817,-0.0598 c 0.0219,0.36601 0.0329,0.74243 0.0329,1.12929 v 2 h -1 z m -0.49194,-5.87315 c -0.28589,-0.9778 -0.69672,-1.82616 -1.23249,-2.54508 l 0.80188,-0.59756 c 0.6073,0.81505 1.0708,1.76904 1.39045,2.86197 z m -3.26361,-4.3462 c -0.75702,-0.43923 -1.63178,-0.76551 -2.62415,-0.97882 l 0.21021,-0.97766 c 1.09552,0.23546 2.06744,0.59931 2.91577,1.09153 z m -5.60254,-1.28013 -0.14374,-5.2e-4 h -2.87061 v -1 h 2.87427 l 0.14374,5.2e-4 -0.004,1 z M 634.12756,210.5 h -3 v -1 h 3 z m -6,0 h -3 v -1 h 3 z m -6,0 h -3 v -1 h 3 z m -6,0 h -3 v -1 h 3 z m -6,0 h -3 v -1 h 3 z m -6,0 h -3 v -1 h 3 z m -6,0 h -3 v -1 h 3 z m -6,0 h -3 v -1 h 3 z m -6,0 h -3 v -1 h 3 z m -6,0 h -3 v -1 h 3 z m -6,0 h -3 v -1 h 3 z m -6,0 h -3 v -1 h 3 z m -6,0 h -3 v -1 h 3 z m -6,0 h -3 v -1 h 3 z m -6,0 h -3 v -1 h 3 z m -6,0 h -3 v -1 h 3 z m -6,0 h -3 v -1 h 3 z m -6,0 h -3 v -1 h 3 z m -6,0 h -3 v -1 h 3 z m -6,0 h -3 v -1 h 3 z m -6,0 h -3 v -1 h 3 z m -6,0 h -3 v -1 h 3 z m -6,0 h -3 v -1 h 3 z m -6,0 h -3 v -1 h 3 z m -6,0 h -3 v -1 h 3 z m -6,0 h -3 v -1 h 3 z m -6,0 h -3 v -1 h 3 z m -6,0 h -3.00003 v -1 h 3.00003 z m -6,0 h -3 v -1 h 3 z m -6,0 h -3 v -1 h 3 z m -6,0 h -3 v -1 h 3 z m -6,0 h -3 v -1 h 3 z m -6,0 h -3 v -1 h 3 z m -6,0 h -3 v -1 h 3 z m -6,0 h -3 v -1 h 3 z m -6,0 h -3 v -1 h 3 z m -6,0 h -3 v -1 h 3 z m -6,0 h -3 v -1 h 3 z m -6,0 h -3 v -1 h 3 z m -6,0 h -3 v -1 h 3 z m -6,0 h -3 v -1 h 3 z m -6,0 h -3 v -1 h 3 z m -6,0 h -3 v -1 h 3 z m -6,0 h -3 v -1 h 3 z m -6,0 h -3 v -1 h 3 z m -6,0 h -3 v -1 h 3 z m -6,0 h -3 v -1 h 3 z m -6,0 h -3 v -1 h 3 z m -6,0 h -3 v -1 h 3 z m -6,0 h -3 v -1 h 3 z m -6,0 h -3 v -1 h 3 z m -6,0 h -3 v -1 h 3 z m -6,0 h -3 v -1 h 3 z m -6,0 h -3 v -1 h 3 z m -6,0 h -3 v -1 h 3 z m -6.06433,0.0237 c -1.03854,0.0539 -1.98169,0.19978 -2.82947,0.43759 l -0.27008,-0.96283 c 0.91922,-0.25785 1.93515,-0.41566 3.04773,-0.47342 l 0.0518,0.99866 z m -5.3873,1.63181 c -0.74252,0.53392 -1.354,1.19964 -1.83441,1.99717 l -0.85657,-0.51599 c 0.55106,-0.91484 1.25345,-1.6792 2.10718,-2.29307 z m -2.84915,4.61091 c -0.20068,0.88919 -0.30893,1.87398 -0.32477,2.95436 l -0.99987,-0.0146 c 0.0168,-1.14978 0.13324,-2.20307 0.34918,-3.15987 l 0.97546,0.22015 z M 295.5,222.74489 v 3 h -1 v -3 z m 0,6 v 2.99999 h -1 v -2.99999 z m 0,5.99999 v 3 h -1 v -3 z"
         style="fill:#000000;fill-opacity:1;fill-rule:nonzero;stroke:none"
         id="path1633"
         inkscape:connector-curvature="0" />
      <path
         d="m 288.5,226.88 6.5,13 6.5,-13"
         style="fill:none;stroke:#000000;stroke-width:1;stroke-linecap:butt;stroke-linejoin:miter;stroke-miterlimit:10;stroke-dasharray:none;stroke-opacity:1"
         id="path1635"
         inkscape:connector-curvature="0" />
    </g>
    <g
       id="g1637"
       transform="matrix(0.2537015,0,0,0.2537015,-454.78389,-130.26363)">
      <path
         d="m 567,204 h 21 v 13 h -21 z"
         style="fill:#ffffff;fill-opacity:1;fill-rule:nonzero;stroke:none"
         id="path1639"
         inkscape:connector-curvature="0" />
      <text
         transform="translate(567.34375,215)"
         style="font-variant:normal;font-weight:normal;font-size:11px;font-family:Verdana;-inkscape-font-specification:Verdana;writing-mode:lr-tb;fill:#000000;fill-opacity:1;fill-rule:nonzero;stroke:none"
         id="text1643">
        <tspan
           x="0 7.6806641 14.287109 17.305664"
           y="0"
           sodipodi:role="line"
           id="tspan1641">Call</tspan>
      </text>
    </g>
    <g
       id="g1645"
       transform="matrix(0.2537015,0,0,0.2537015,-454.65704,-130.13678)">
      <path
         d="m 580,140 h 226 l 14,14 v 36 H 580 Z"
         style="fill:#ffffff;fill-opacity:1;fill-rule:nonzero;stroke:none"
         id="path1647"
         inkscape:connector-curvature="0" />
      <path
         d="m 580,140 h 226 l 14,14 v 36 H 580 Z"
         style="fill:none;stroke:#000000;stroke-width:1;stroke-linecap:butt;stroke-linejoin:miter;stroke-miterlimit:10;stroke-dasharray:none;stroke-opacity:1"
         id="path1649"
         inkscape:connector-curvature="0" />
      <path
         d="m 806,140 v 14 h 14"
         style="fill:none;stroke:#000000;stroke-width:1;stroke-linecap:butt;stroke-linejoin:miter;stroke-miterlimit:10;stroke-dasharray:none;stroke-opacity:1"
         id="path1651"
         inkscape:connector-curvature="0" />
    </g>
    <g
       id="g1653"
       transform="matrix(0.2537015,0,0,0.2537015,-454.78389,-130.26363)">
      <text
         transform="translate(582,152)"
         style="font-variant:normal;font-weight:normal;font-size:12px;font-family:Verdana;-inkscape-font-specification:Verdana;writing-mode:lr-tb;fill:#000000;fill-opacity:1;fill-rule:nonzero;stroke:none"
         id="text1657">
        <tspan
           x="0 6.2519531 11.373047 18.521484 25.728516 30.457031 37.605469 45.984375 53.578125 60.785156 68.378906 75.972656 83.121094 86.414062 91.863281 97.3125 101.53125 107.7832 114.99023 118.2832 121.57617 127.82812 132.04688 136.17773 143.46094 146.75391 154.34766 162.72656 170.32031 177.52734 185.12109 192.71484 199.86328 203.15625 208.60547"
           y="0"
           sodipodi:role="line"
           id="tspan1655">createChannel() calls joinChannel()</tspan>
      </text>
      <text
         transform="translate(582,180)"
         style="font-variant:normal;font-weight:normal;font-size:12px;font-family:Verdana;-inkscape-font-specification:Verdana;writing-mode:lr-tb;fill:#000000;fill-opacity:1;fill-rule:nonzero;stroke:none"
         id="text1665">
        <tspan
           x="0 6.2519531 13.400391 20.994141 28.470703 38.583984 45.732422 51.984375 58.236328 65.443359 72.919922 80.068359 85.517578 90.966797 95.185547 101.4375 108.64453 111.9375 115.23047 121.48242 125.70117 131.95312 139.10156 146.69531 154.17188 163.61719 171.09375 175.22461 182.37305 188.625 193.35352 198.80273"
           y="0"
           sodipodi:role="line"
           id="tspan1663">sendMessage() calls sendObject()</tspan>
      </text>
    </g>
    <g
       id="g1667"
       transform="matrix(0.2537015,0,0,0.2537015,-454.65704,-130.13678)">
      <path
         d="m 650,269.5 h 3 v 1 h -3 z m 6,0 h 3 v 1 h -3 z m 6,0 h 3 v 1 h -3 z m 6,0 h 3 v 1 h -3 z m 6,0 h 3 v 1 h -3 z m 6,0 h 3 v 1 h -3 z m 6,0 h 3 v 1 h -3 z m 6,0 h 3 v 1 h -3 z m 6,0 h 3 v 1 h -3 z m 6.06873,-0.0311 c 1.0296,-0.0616 1.9646,-0.21499 2.80487,-0.46008 l 0.2799,0.96002 c -0.91229,0.26612 -1.92065,0.43222 -3.02496,0.49829 l -0.0598,-0.99823 z m 5.35351,-1.68826 c 0.73395,-0.543 1.33844,-1.21738 1.81348,-2.02319 l 0.86145,0.50775 c -0.54395,0.9227 -1.23737,1.69583 -2.0802,2.3194 z m 2.81238,-4.64163 c 0.19971,-0.89548 0.30756,-1.88635 0.32361,-2.97269 l 0.99988,0.0148 c -0.0171,1.15497 -0.13288,2.2135 -0.34742,3.17557 l -0.97607,-0.21765 z m 0.34149,-5.98746 0.017,-2.99992 1,0.006 -0.017,2.99996 -1,-0.006 z m 0.0339,-5.99988 0.017,-2.99995 1,0.006 -0.017,2.99996 -1,-0.006 z m 0.0339,-5.99992 0.017,-2.99996 1,0.006 -0.017,2.99996 z m 0.034,-5.99988 0.017,-2.99995 1,0.006 -0.017,2.99996 -1,-0.006 z m 0.0339,-5.99991 0.017,-2.99995 1,0.006 -0.017,2.99996 -1,-0.006 z m 0.0339,-5.99991 0.017,-2.99995 1,0.006 -0.017,2.99995 z m 0.034,-5.9999 0.017,-2.99994 1,0.006 -0.017,2.99994 z m 0.0339,-5.9999 0.017,-2.99995 1,0.006 -0.017,2.99996 -1,-0.006 z m 0.0339,-5.99991 0.017,-2.99995 1,0.006 -0.017,2.99995 z m 0.034,-5.9999 0.017,-2.99996 1,0.006 -0.017,2.99995 -1,-0.006 z m 0.0339,-5.9999 0.017,-2.99995 1,0.006 -0.017,2.99996 -1,-0.006 z"
         style="fill:#000000;fill-opacity:1;fill-rule:nonzero;stroke:none"
         id="path1669"
         inkscape:connector-curvature="0" />
    </g>
    <text
       xml:space="preserve"
       style="font-style:normal;font-variant:normal;font-weight:normal;font-stretch:normal;font-size:50.79999924px;line-height:1.25;font-family:Georgia;-inkscape-font-specification:Georgia;letter-spacing:0px;word-spacing:0px;fill:#000000;fill-opacity:1;stroke:none;stroke-width:0.26458332"
       x="-468.06747"
       y="41.240345"
       id="text2242"><tspan
         sodipodi:role="line"
         id="tspan2240"
         x="-468.06747"
         y="87.073135"
         style="stroke-width:0.26458332" /></text>
    <text
       xml:space="preserve"
       style="font-style:normal;font-variant:normal;font-weight:normal;font-stretch:normal;font-size:2.82222223px;line-height:0;font-family:Georgia;-inkscape-font-specification:Georgia;letter-spacing:0px;word-spacing:0px;fill:#000000;fill-opacity:1;stroke:none;stroke-width:0.26458332"
       x="-452.97549"
       y="3.7302222"
       id="text2246"><tspan
         sodipodi:role="line"
         x="-452.97549"
         y="3.7302222"
         style="font-style:normal;font-variant:normal;font-weight:normal;font-stretch:normal;font-size:3.04440165px;line-height:1;font-family:Verdana;-inkscape-font-specification:'Verdana, Normal';font-variant-ligatures:normal;font-variant-caps:normal;font-variant-numeric:normal;font-feature-settings:normal;text-align:start;writing-mode:lr-tb;text-anchor:start;stroke-width:0.26458332"
         id="tspan2248">+ notify(chat:ChatData, observers:ArrayList&lt;Observer&gt;,</tspan></text>
    <text
       xml:space="preserve"
       style="font-style:normal;font-variant:normal;font-weight:normal;font-stretch:normal;font-size:2.82222223px;line-height:0;font-family:Georgia;-inkscape-font-specification:Georgia;letter-spacing:0px;word-spacing:0px;fill:#000000;fill-opacity:1;stroke:none;stroke-width:0.26458332"
       x="-439.21872"
       y="7.2384381"
       id="text2246-4"><tspan
         sodipodi:role="line"
         x="-439.21872"
         y="7.2384381"
         style="font-style:normal;font-variant:normal;font-weight:normal;font-stretch:normal;font-size:3.04440165px;line-height:1;font-family:Verdana;-inkscape-font-specification:'Verdana, Normal';font-variant-ligatures:normal;font-variant-caps:normal;font-variant-numeric:normal;font-feature-settings:normal;text-align:start;writing-mode:lr-tb;text-anchor:start;stroke-width:0.26458332"
         id="tspan2250-8">sendingObserver:Observer): void</tspan><tspan
         sodipodi:role="line"
         x="-439.21872"
         y="8.6682682"
         style="font-style:normal;font-variant:normal;font-weight:normal;font-stretch:normal;font-size:3.04440165px;line-height:1;font-family:Verdana;-inkscape-font-specification:'Verdana, Normal';font-variant-ligatures:normal;font-variant-caps:normal;font-variant-numeric:normal;font-feature-settings:normal;text-align:start;writing-mode:lr-tb;text-anchor:start;stroke-width:0.26458332"
         id="tspan2248-6" /></text>
    <text
       xml:space="preserve"
       style="font-style:normal;font-variant:normal;font-weight:normal;font-stretch:normal;font-size:2.82222223px;line-height:0;font-family:Georgia;-inkscape-font-specification:Georgia;letter-spacing:0px;word-spacing:0px;fill:#000000;fill-opacity:1;stroke:none;stroke-width:0.26458332"
       x="-350.38644"
       y="-50.049236"
       id="text2246-4-5"><tspan
         sodipodi:role="line"
         x="-350.38644"
         y="-50.049236"
         style="font-style:normal;font-variant:normal;font-weight:normal;font-stretch:normal;font-size:3.04440165px;line-height:1;font-family:Verdana;-inkscape-font-specification:'Verdana, Normal';font-variant-ligatures:normal;font-variant-caps:normal;font-variant-numeric:normal;font-feature-settings:normal;text-align:start;writing-mode:lr-tb;text-anchor:start;stroke-width:0.26458332"
         id="tspan2250-8-2">0..*</tspan><tspan
         sodipodi:role="line"
         x="-350.38644"
         y="-48.619408"
         style="font-style:normal;font-variant:normal;font-weight:normal;font-stretch:normal;font-size:3.04440165px;line-height:1;font-family:Verdana;-inkscape-font-specification:'Verdana, Normal';font-variant-ligatures:normal;font-variant-caps:normal;font-variant-numeric:normal;font-feature-settings:normal;text-align:start;writing-mode:lr-tb;text-anchor:start;stroke-width:0.26458332"
         id="tspan2248-6-7" /></text>
    <text
       xml:space="preserve"
       style="font-style:normal;font-variant:normal;font-weight:normal;font-stretch:normal;font-size:2.82222223px;line-height:0;font-family:Georgia;-inkscape-font-specification:Georgia;letter-spacing:0px;word-spacing:0px;fill:#000000;fill-opacity:1;stroke:none;stroke-width:0.26458332"
       x="-342.4017"
       y="8.8205547"
       id="text2246-4-2"><tspan
         sodipodi:role="line"
         x="-342.4017"
         y="8.8205547"
         style="font-style:normal;font-variant:normal;font-weight:normal;font-stretch:normal;font-size:3.04440165px;line-height:1;font-family:Verdana;-inkscape-font-specification:'Verdana, Normal';font-variant-ligatures:normal;font-variant-caps:normal;font-variant-numeric:normal;font-feature-settings:normal;text-align:start;writing-mode:lr-tb;text-anchor:start;stroke-width:0.26458332"
         id="tspan2250-8-3">+ deleteChannel(channel:String): void</tspan><tspan
         sodipodi:role="line"
         x="-342.4017"
         y="10.250384"
         style="font-style:normal;font-variant:normal;font-weight:normal;font-stretch:normal;font-size:3.04440165px;line-height:1;font-family:Verdana;-inkscape-font-specification:'Verdana, Normal';font-variant-ligatures:normal;font-variant-caps:normal;font-variant-numeric:normal;font-feature-settings:normal;text-align:start;writing-mode:lr-tb;text-anchor:start;stroke-width:0.26458332"
         id="tspan2248-6-75" /></text>
    <text
       xml:space="preserve"
       style="font-style:normal;font-variant:normal;font-weight:normal;font-stretch:normal;font-size:2.82222223px;line-height:0;font-family:Georgia;-inkscape-font-specification:Georgia;letter-spacing:0px;word-spacing:0px;fill:#000000;fill-opacity:1;stroke:none;stroke-width:0.26458332"
       x="-307.10419"
       y="-88.148689"
       id="text2246-4-2-5"><tspan
         sodipodi:role="line"
         x="-307.10419"
         y="-88.148689"
         style="font-style:normal;font-variant:normal;font-weight:normal;font-stretch:normal;font-size:3.04440165px;line-height:1;font-family:Verdana;-inkscape-font-specification:'Verdana, Normal';font-variant-ligatures:normal;font-variant-caps:normal;font-variant-numeric:normal;font-feature-settings:normal;text-align:start;writing-mode:lr-tb;text-anchor:start;stroke-width:0.26458332"
         id="tspan2250-8-3-8">deleteChannel() calls leaveChannel()</tspan><tspan
         sodipodi:role="line"
         x="-307.10419"
         y="-86.718857"
         style="font-style:normal;font-variant:normal;font-weight:normal;font-stretch:normal;font-size:3.04440165px;line-height:1;font-family:Verdana;-inkscape-font-specification:'Verdana, Normal';font-variant-ligatures:normal;font-variant-caps:normal;font-variant-numeric:normal;font-feature-settings:normal;text-align:start;writing-mode:lr-tb;text-anchor:start;stroke-width:0.26458332"
         id="tspan2248-6-75-2" /></text>
  </g>
</svg>
